<svg xmlns="http://www.w3.org/2000/svg" viewBox="0 0 224 224" enable-background="new 0 0 224 224"><style type="text/css">.st0{fill:#EFE8DF;} .st1{fill:#FFFFFF;} .st2{fill:#A8C432;} .st3{fill:#404040;}</style><path class="st0" d="M143.6 197v-146.4c0-.1-.1-.2-.1-.4v-.1l-.3-.4-.1-.1-23.7-26-.1-.1-.4-.3h-.1l-.4-.2h-64.3v-18h110.8v24.1c0 .5.2 1 .6 1.4.4.4.9.6 1.4.6h21.8v166h-45.1zm25.3-188.9l17.3 18.9h-17.3v-18.9z"/><path class="st1" d="M5 219v-192h110.8v24.1c0 1.1.9 2 2 2h21.8v165.9h-134.6zm33.7-58.1c-.8 0-1.5.4-1.8 1.1l-13.6 28.4c-.2.5-.3 1-.1 1.5.2.5.5.9 1 1.1.3.1.6.2.9.2.8 0 1.5-.4 1.8-1.1l12.7-26.6 19.3 9.2c.3.1.6.2.9.2.2 0 .5 0 .7-.1.5-.2.9-.5 1.1-1l12.6-26.4 19.2 9.1c.3.1.6.2.9.2.8 0 1.5-.4 1.8-1.1l12.7-26.5 10 4.8c.3.1.6.2.9.2.4 0 .7-.1 1.1-.3.6-.4.9-1 .9-1.7v-30.6c0-.8-.4-1.5-1.1-1.8-.3-.1-.6-.2-.9-.2-.5 0-.9.2-1.3.4l-23.7 19.2c-.5.4-.8 1.1-.7 1.8.1.7.5 1.3 1.1 1.6l10.1 4.8-12 24.7-19.2-9.1c-.3-.1-.6-.2-.9-.2-.2 0-.5 0-.7.1-.5.2-.9.5-1.1 1l-12.6 26.4-19.3-9.2c-.2-.1-.4-.1-.7-.1zm81.1-111.8v-19l17.3 18.9h-17.3z"/><path class="st2" d="M99.5 120.2l18-14.6v23.2z"/><path class="st3" d="M193.7 28.7v-.1c0-.2-.1-.5-.2-.7l-.1-.2c-.1-.2-.2-.4-.4-.5l-.1-.1-23.8-26.1c-.2-.2-.4-.4-.6-.5l-.2-.1-.6-.3h-.1l-.6-.1h-114.9c-1.7 0-3 1.3-3 3v19h-46.1c-1.7 0-3 1.3-3 3v196c0 1.7 1.3 3 3 3h138.6c1.7 0 3-1.3 3-3v-19h46.1c1.7 0 3-1.3 3-3v-170.3zm-6 3.3v164h-43.1v-145.6c0-.2-.1-.5-.2-.7l-.1-.1c-.1-.2-.2-.4-.4-.6l-.1-.1-23.8-25.9c-.2-.2-.4-.4-.6-.5l-.1-.1c-.2-.1-.4-.2-.7-.3h-.1c-.2 0-.4-.1-.7-.1h-62.7v-16h108.8v23.1c0 .8.3 1.6.9 2.1.6.6 1.3.9 2.1.9l20.8-.1zm-49.1 186h-132.6v-190h108.8v23.1c0 1.7 1.3 3 3 3h20.8v163.9zm-17.8-169.9v-15.4l14 15.3h-14zm63.1-22.1h-14v-15.3l14 15.3zm-63.1 72.7c-1-.5-2.3-.3-3.2.4l-23.7 19.2c-.8.6-1.2 1.7-1.1 2.7.1 1 .8 1.9 1.7 2.4l9.2 4.4-10.9 22.9-18.3-8.7c-.7-.3-1.5-.4-2.3-.1-.8.3-1.4.8-1.7 1.5l-12.2 25.5-18.4-8.7c-1.5-.7-3.3-.1-4 1.4l-13.5 28.4c-.7 1.5-.1 3.3 1.4 4 .4.2.9.3 1.3.3 1.1 0 2.2-.6 2.7-1.7l12.3-25.7 18.4 8.7c.7.3 1.5.4 2.3.1.8-.3 1.4-.8 1.7-1.5l12.2-25.5 18.3 8.7c1.5.7 3.3.1 4-1.4l12.2-25.6 9.1 4.4c.4.2.9.3 1.3.3.6 0 1.1-.2 1.6-.5.9-.6 1.4-1.5 1.4-2.5v-30.6c-.1-1.3-.8-2.3-1.8-2.8zm-4.3 9v19.5l-15.1-7.2 15.1-12.3z"/></svg>