<svg xmlns="http://www.w3.org/2000/svg" viewBox="0 0 224 224" enable-background="new 0 0 224 224"><style type="text/css">.st0{fill:#EFE8DF;} .st1{fill:#E6D1B8;} .st2{fill:#B0DFDB;} .st3{fill:#404040;}</style><path class="st0" d="M139 219v-179.5c0-1.1-.9-2-2-2h-14v-14c0-1.1-.9-2-2-2h-32c-1.1 0-2 .9-2 2v14h-17v-29.2h130v210.7h-61zm10-70.2c-1.1 0-2 .9-2 2v16c0 1.1.9 2 2 2h32c1.1 0 2-.9 2-2v-16c0-1.1-.9-2-2-2h-32zm0-31.8c-1.1 0-2 .9-2 2v16c0 1.1.9 2 2 2h32c1.1 0 2-.9 2-2v-16c0-1.1-.9-2-2-2h-32zm0-31.8c-1.1 0-2 .9-2 2v16c0 1.1.9 2 2 2h32c1.1 0 2-.9 2-2v-16c0-1.1-.9-2-2-2h-32zm0-31.9c-1.1 0-2 .9-2 2v16c0 1.1.9 2 2 2h32c1.1 0 2-.9 2-2v-16c0-1.1-.9-2-2-2h-32zm0-31.8c-1.1 0-2 .9-2 2v16c0 1.1.9 2 2 2h32c1.1 0 2-.9 2-2v-16c0-1.1-.9-2-2-2h-32zm-64.7 197.5v-36.3c0-1.1-.9-2-2-2h-24.6c-1.1 0-2 .9-2 2v36.3h-50.7v-177.5h130v177.5h-50.7zm-.3-70.2c-1.1 0-2 .9-2 2v16c0 1.1.9 2 2 2h32c1.1 0 2-.9 2-2v-16c0-1.1-.9-2-2-2h-32zm-60 0c-1.1 0-2 .9-2 2v16c0 1.1.9 2 2 2h32c1.1 0 2-.9 2-2v-16c0-1.1-.9-2-2-2h-32zm60-31.8c-1.1 0-2 .9-2 2v16c0 1.1.9 2 2 2h32c1.1 0 2-.9 2-2v-16c0-1.1-.9-2-2-2h-32zm-60 0c-1.1 0-2 .9-2 2v16c0 1.1.9 2 2 2h32c1.1 0 2-.9 2-2v-16c0-1.1-.9-2-2-2h-32zm60-31.8c-1.1 0-2 .9-2 2v16c0 1.1.9 2 2 2h32c1.1 0 2-.9 2-2v-16c0-1.1-.9-2-2-2h-32zm-60 0c-1.1 0-2 .9-2 2v16c0 1.1.9 2 2 2h32c1.1 0 2-.9 2-2v-16c0-1.1-.9-2-2-2h-32zm60-31.9c-1.1 0-2 .9-2 2v16c0 1.1.9 2 2 2h32c1.1 0 2-.9 2-2v-16c0-1.1-.9-2-2-2h-32zm-60 0c-1.1 0-2 .9-2 2v16c0 1.1.9 2 2 2h32c1.1 0 2-.9 2-2v-16c0-1.1-.9-2-2-2h-32z"/><path class="st1" d="M59.7 184.7h20.7v34.3h-20.7z"/><path class="st2" d="M151 152.8h12v12h-12zm16 0h12v12h-12zm-16-31.8h12v12h-12zm16 0h12v12h-12zm-16-31.8h12v12h-12zm16 0h12v12h-12zm-16-31.9h12v12h-12zm16 0h12v12h-12zm-76-31.8h12v12h-12zm16 0h12v12h-12zm44 0h12v12h-12zm16 0h12v12h-12zm-141 127.3h12v12h-12zm16 0h12v12h-12zm44 0h12v12h-12zm16 0h12v12h-12zm-76-31.8h12v12h-12zm16 0h12v12h-12zm44 0h12v12h-12zm16 0h12v12h-12zm-76-31.8h12v12h-12zm16 0h12v12h-12zm44 0h12v12h-12zm16 0h12v12h-12zm-76-31.9h12v12h-12zm16 0h12v12h-12zm44 0h12v12h-12zm16 0h12v12h-12z"/><path class="st3" d="M202 3.3h-134c-1.7 0-3 1.3-3 3v30.2h-62c-1.7 0-3 1.3-3 3v181.5c0 1.7 1.3 3 3 3h199c1.7 0 3-1.3 3-3v-214.7c0-1.7-1.3-3-3-3zm-131 214.7h-10.3v-32.3h18.6v32.3h-8.3zm11.3-38.3h-24.6c-1.7 0-3 1.3-3 3v35.3h-48.7v-175.5h128v175.5h-48.7v-35.3c0-1.7-1.3-3-3-3zm25.7-153.2h10v10h-10v-10zm-6 10h-10v-10h10v10zm97 181.5h-59v-178.5c0-1.7-1.3-3-3-3h-13v-13c0-1.7-1.3-3-3-3h-32c-1.7 0-3 1.3-3 3v13h-15v-27.2h128v208.7zm-50-48.2h32c1.7 0 3-1.3 3-3v-16c0-1.7-1.3-3-3-3h-32c-1.7 0-3 1.3-3 3v16c0 1.7 1.3 3 3 3zm29-6h-10v-10h10v10zm-26-10h10v10h-10v-10zm-3-15.8h32c1.7 0 3-1.3 3-3v-16c0-1.7-1.3-3-3-3h-32c-1.7 0-3 1.3-3 3v16c0 1.7 1.3 3 3 3zm29-6h-10v-10h10v10zm-26-10h10v10h-10v-10zm-3-15.8h32c1.7 0 3-1.3 3-3v-16c0-1.7-1.3-3-3-3h-32c-1.7 0-3 1.3-3 3v16c0 1.6 1.3 3 3 3zm29-6h-10v-10h10v10zm-26-10h10v10h-10v-10zm-3-15.9h32c1.7 0 3-1.3 3-3v-16c0-1.7-1.3-3-3-3h-32c-1.7 0-3 1.3-3 3v16c0 1.7 1.3 3 3 3zm29-6h-10v-10h10v10zm-26-10h10v10h-10v-10zm-3-15.8h32c1.7 0 3-1.3 3-3v-16c0-1.7-1.3-3-3-3h-32c-1.7 0-3 1.3-3 3v16c0 1.7 1.3 3 3 3zm29-6h-10v-10h10v10zm-26-10h10v10h-10v-10zm-96 121.3h-32c-1.7 0-3 1.3-3 3v16c0 1.7 1.3 3 3 3h32c1.7 0 3-1.3 3-3v-16c0-1.6-1.3-3-3-3zm-3 16h-10v-10h10v10zm-26-10h10v10h-10v-10zm73 16h16c1.7 0 3-1.3 3-3v-16c0-1.7-1.3-3-3-3h-32c-1.7 0-3 1.3-3 3v16c0 1.7 1.3 3 3 3h16zm-13-16h10v10h-10v-10zm26 10h-10v-10h10v10zm-57-47.8h-32c-1.7 0-3 1.3-3 3v16c0 1.7 1.3 3 3 3h32c1.7 0 3-1.3 3-3v-16c0-1.7-1.3-3-3-3zm-3 16h-10v-10h10v10zm-26-10h10v10h-10v-10zm57 16h32c1.7 0 3-1.3 3-3v-16c0-1.7-1.3-3-3-3h-32c-1.7 0-3 1.3-3 3v16c0 1.7 1.3 3 3 3zm3-16h10v10h-10v-10zm26 10h-10v-10h10v10zm-57-47.8h-32c-1.7 0-3 1.3-3 3v16c0 1.7 1.3 3 3 3h32c1.7 0 3-1.3 3-3v-16c0-1.7-1.3-3-3-3zm-3 16h-10v-10h10v10zm-26-10h10v10h-10v-10zm57 16h32c1.7 0 3-1.3 3-3v-16c0-1.7-1.3-3-3-3h-32c-1.7 0-3 1.3-3 3v16c0 1.6 1.3 3 3 3zm3-16h10v10h-10v-10zm26 10h-10v-10h10v10zm-57-47.9h-32c-1.7 0-3 1.3-3 3v16c0 1.7 1.3 3 3 3h32c1.7 0 3-1.3 3-3v-16c0-1.6-1.3-3-3-3zm-3 16h-10v-10h10v10zm-26-10h10v10h-10v-10zm57 16h32c1.7 0 3-1.3 3-3v-16c0-1.7-1.3-3-3-3h-32c-1.7 0-3 1.3-3 3v16c0 1.7 1.3 3 3 3zm3-16h10v10h-10v-10zm26 10h-10v-10h10v10z"/></svg>