<svg xmlns="http://www.w3.org/2000/svg" viewBox="0 0 224 224" enable-background="new 0 0 224 224"><style type="text/css">.st0{fill:#FFFFFF;} .st1{fill:#666666;} .st2{fill:#B0DFDB;} .st3{fill:#776655;} .st4{fill:#E6D1B8;} .st5{fill:#DA291C;} .st6{fill:#404040;}</style><path class="st0" d="M40.5 126.3l-.2-.8c-.7-2.7-2.3-5-4.6-6.6l-.4-.3v-49.2c0-4.5 1.7-8.8 4.7-11.9l1.7-1.7v56.2c0 1.1.9 2 2 2h10.5c1.1 0 2-.9 2-2v-56.6l1.7 1.4c3.5 3 5.5 7.6 5.5 12.6v50.4l-.3.3c-1.5 1.5-2.6 3.4-3.2 5.4l-.2.8h-19.2z"/><path class="st1" d="M27.6 21.1c0-.1.1-.2.1-.4 0-.1 0-.1.1-.2.2-.5.3-1 .5-1.4l.4-1c.2-.4.4-.8.6-1.1l.1-.1.5-.9c.2-.4.5-.8.8-1.2l.2-.3c.1-.2.2-.4.4-.5l1.5-1.8.3-.3.1-.1c.5-.5.9-.9 1.4-1.3.1-.1.3-.2.4-.4l.2-.1c.5-.4.9-.7 1.4-1 .2-.2.5-.3.7-.4.4-.3.9-.6 1.5-.9l.2-.1c.2-.1.3-.2.5-.2.8-.4 1.5-.7 2.2-.9h.1c1.2-.4 2.4-.7 3.6-.9 1.1-.5 2.3-.6 3.6-.6.5 0 1.1 0 1.6.1 3.8.3 7.5 1.6 10.7 3.7l1.4 1-1.5.8-34.1 12.4.5-1.9zm-3.6 48.3c0-4.5 3.2-8.8 8.7-11.8l3.1-1.7-1.8 3.1c-1.8 3.2-2.7 6.8-2.7 10.5v47.7l-1.1-.1h-.9c-1.3 0-2.6.2-3.9.7l-1.3.5v-48.9zm49.5 47.9c-.9-.2-1.7-.3-2.5-.3s-1.5.1-2.3.2l-1.2.2v-48c0-3.7-1-7.3-2.7-10.5l-1.8-3.1 3.1 1.7c5.5 3 8.7 7.4 8.7 11.8v48.1l-1.3-.1zm-17 101.7c-3.8 0-6.9-3.1-6.9-6.9v-45.1h6c1.1 0 2-.9 2-2v-34.6h2.2l.2.8c.5 2.1 1.6 4 3.2 5.4l.3.3v75.3c-.1 3.7-3.2 6.8-7 6.8zm-17.9 0c-3.8 0-6.9-3.1-6.9-6.9v-45.1h13.9v45.1c0 3.8-3.2 6.9-7 6.9zm90.2 0c-3.8 0-6.9-3.1-6.9-7v-45.2h13.9v45.2c0 3.9-3.2 7-7 7zm-17.9 0c-3.8 0-6.9-3.1-6.9-7v-45.2h13.9v45.2c0 3.9-3.1 7-7 7z"/><path class="st2" d="M98.7 117.3c-1-.3-2.1-.4-3.1-.4-.5 0-1.1 0-1.7.1l-1.2.2v-47.9c0-4.5 3.1-8.8 8.6-11.8l3.1-1.7-1.7 3.1c-1.7 3.1-2.7 6.7-2.7 10.4v48.5l-1.3-.5zm37.1-48.1c0-3.6-.9-7.2-2.7-10.4l-1.7-3.1 3.1 1.7c5.4 3 8.6 7.3 8.6 11.8v29.8l-.6.3c-1.8.8-3.5 1.8-5.1 2.9l-1.6 1.2v-34.2zm-29 56.9l-.2-.7c-.4-1.6-1.2-3.2-2.3-4.5l-.2-.3v-51.4c0-7.8 5.1-14.6 11.9-15.7h4c6.8 1.1 11.9 7.9 11.9 15.7v38.4l-.2.3c-3.5 4.7-5.4 10.3-5.4 16.2v2h-19.5zm-11.3 36.8l5.9-24.9.3-.2c1-.6 1.8-1.4 2.6-2.2 1.1-1.3 2-3 2.4-4.7l.2-.8h2.9v32.7h-14.3z"/><path class="st3" d="M5 163v-32.6h13.1l.2.8c1 4.2 4.4 7.4 8.6 8.3.8.2 1.6.3 2.4.3h.4c.9 0 1.9-.2 2.8-.4 3.9-1.1 6.9-4.2 7.9-8.1l.2-.8h13.1v32.5h-48.7zm133.8-138c-9.5-1.5-17.1-9.1-18.6-18.6l-.2-1.3 1.3.2.8.1c.4.1.8.1 1.1.2l2 .6c.8.3 1.7.6 2.6 1.1l.4.2.1.1c.8.4 1.5.9 2.2 1.3l.1.1c1.6 1.1 3.1 2.5 4.3 4 .7.8 1.2 1.6 1.8 2.5l.1.1c.5.8 1 1.7 1.3 2.5.4.9.7 1.7 1 2.6l.1.4c.2.8.4 1.6.5 2.4l.1.3.2 1.4-1.2-.2zm-43.1 0l.2-1.1c0-.1 0-.2.1-.3v-.1c.1-.5.2-1 .3-1.6.2-.7.4-1.4.6-2 .3-.8.7-1.7 1.1-2.6l.2-.3c.4-.8.9-1.6 1.4-2.3l.2-.3c.6-.8 1.1-1.5 1.7-2.1l.1-.1c.7-.7 1.4-1.4 2.2-2.1l.2-.1c.1-.1.2-.2.3-.2.3-.3.6-.5.9-.7l.3-.2.3-.2c.5-.3 1-.6 1.6-.9l.1-.1c.5-.3 1-.5 1.6-.7l.2-.1 1.5-.6.2-.1 1.6-.5h.2c.2-.1.4-.1.7-.1l.5-.1.5-.1 1.5-.2-.2 1.4c-1.3 8.2-7.2 15.2-15.1 17.8l-.3.1h-.2c-1 .3-2 .5-2.9.7h-1.6zm18 137.9v-32.7h13l.2.8c1.9 10.4 8.4 20.9 18.6 30.2l1.9 1.7h-33.7z"/><path class="st4" d="M49 49.6c-9.4 0-17.9-6-21-14.9-.7-2.1-1.2-4.3-1.2-6.6v-.7l39.3-14.4.4.6c1.5 1.9 2.7 4.1 3.5 6.3 4.1 11.6-2.1 24.3-13.7 28.4-2.3.9-4.8 1.3-7.3 1.3zm-19.7 86.1c-1 0-2-.2-3-.7-1.4-.7-2.7-1.8-3.4-3.2-.6-1.1-.9-2.3-.9-3.5 0-1.2.3-2.4.9-3.5.4-.7.9-1.4 1.5-1.9 1.4-1.3 3.1-2 5-2 .4 0 .8.1 1.1.1 1.3.2 2.5.7 3.5 1.6.7.6 1.3 1.3 1.8 2.2.6 1.1.9 2.3.9 3.5s-.3 2.4-.9 3.5c-.6 1.1-1.5 2-2.5 2.7-1 .7-2.2 1-3.5 1.1-.3.1-.4.1-.5.1zm41.6 0c-1 0-2-.2-2.9-.6-1.4-.6-2.7-1.8-3.5-3.2-.7-1.2-1-2.4-1-3.6s.3-2.4.9-3.5c.8-1.5 2.1-2.6 3.5-3.3.9-.4 1.9-.6 2.9-.6 1.1 0 2.2.3 3.2.8 1.5.7 2.8 2 3.5 3.5.4 1 .7 2 .7 3 0 1.2-.3 2.4-.9 3.5-1.2 2.5-3.7 4-6.4 4zm47-86.1c-.5 0-.9 0-1.4-.1h-.7c-1.8-.2-3.6-.6-5.3-1.2-7.9-2.8-13.6-9.7-14.7-18.1l-.1-1 1-.1c8.7-1 16.3-6.3 20.3-14.2l.9-1.7.9 1.7c4 7.9 11.6 13.2 20.3 14.2l1 .1-.1 1c-.2 1.5-.6 3-1.1 4.4-2.9 8.2-10.3 14-19 14.8h-.6c-.4.2-.9.2-1.4.2zm-22.3 86c-2.8 0-5.3-1.6-6.6-4.1-.5-1-.8-2.1-.8-3.2 0-1.7.6-3.3 1.7-4.6.9-1.1 2.1-1.9 3.5-2.3.8-.2 1.5-.4 2.2-.4 1.4 0 2.7.4 3.9 1.2 1 .6 1.8 1.5 2.4 2.6l.1.1c.6 1.1.9 2.2.9 3.4v.1c0 1.1-.3 2.2-.8 3.2l-.1.1c-.2.4-.4.7-.6 1-.5.7-1.2 1.4-2 1.9-.7.4-1.4.8-2.2.9l-1.6.1z"/><path class="st5" d="M45.7 64.3h6.5v45.8h-6.5zm0-4v-6.6l1-.1h5.6v6.7zm127 114c-2-.8-6.1-2.8-10.5-5.6-3-1.9-5.9-3.9-8.7-6.1-8.9-6.9-15.3-14.3-19.2-22-.6-1.2-1.1-2.4-1.6-3.5l-.5-1.4h26.9c.5 0 1-.2 1.4-.6.2-.2.4-.5.5-.8l1.7-5.4 1.9.1 3.7 17.8c.2.9 1 1.6 2 1.6s1.8-.7 2-1.6l3-16.7 2.2 4.7c.3.7 1 1.2 1.8 1.2h18.3c1.1 0 2-.9 2-2s-.9-2-2-2h-17l-4.3-9.3c-.3-.7-1-1.2-1.8-1.2h-.3c-.9.1-1.6.8-1.7 1.6l-1.4 7.6h-2l-2.9-14.2c-.2-.9-1-1.6-1.9-1.6-1 0-1.7.6-2 1.4l-4.7 15.3h-24.3c-.2 0-.4 0-.7.1l-.2.1-1.1.6-.3-1.2c-.5-2.4-.8-4.9-.8-7.2 0-5.7 2.1-11.1 5.9-15.4 1.6-1.8 3.4-3.3 5.5-4.5 2-1.2 4.1-2 6.3-2.5 1.8-.4 3.6-.6 5.4-.6 6.3 0 12.2 2.5 16.6 7 .8.8 2 1.3 3.3 1.3s2.5-.5 3.3-1.3c4.4-4.5 10.3-7 16.6-7 12.7 0 23.1 10.3 23.1 23.1 0 27.6-34.1 46.9-42.5 50.2l-.4.1-.6-.1z"/><path class="st6" d="M79.7 69.4c0-8.3-6.8-15.3-16.8-18.7 10.9-6.5 16.2-20 11.8-32.5-1.3-3.6-3.3-6.9-5.8-9.6l-.1-.1-.2-.2c-.5-.6-1.1-1.1-1.7-1.6-.1-.1-.2-.1-.2-.2-.6-.5-1.3-1-2.1-1.5-.7-.5-1.5-1-2.3-1.4l-.2-.1c-2.3-1.3-4.9-2.3-7.5-2.8-.1 0-.2 0-.4-.1-.7-.1-1.5-.3-2.2-.3-.2 0-.3 0-.5-.1-.8-.1-1.6-.2-2.5-.2-1.5 0-3.1.1-4.6.4-1.5.3-3 .6-4.5 1.2l-2.3.9-.7.3c-.5.2-1 .5-1.5.8-.1.1-.4.3-.6.4-.6.3-1.1.7-1.6 1.1l-.4.3-1.8 1.4c-.2.2-.4.4-.6.5l-1.2 1.2-.5.5c-.6.6-1.1 1.3-1.6 1.9-.5.7-1 1.4-1.4 2.1 0 .1-.1.2-.1.2l-1.2 2.1s0 .1-.1.1v.1c-.4.8-.7 1.6-1 2.4-.3.7-.5 1.5-.7 2.2-.1.3-.2.6-.2.9l-.3 1.2c-.1.4-.2.8-.2 1.2 0 .3-.1.6-.1.8 0 .4-.1.9-.1 1.4v.5c-.1 3.4.3 6.8 1.5 10.1 2.2 6.3 6.6 11.4 12.1 14.6-9.7 3.5-16.3 10.4-16.3 18.6v52.1c-.8 1.2-1.3 2.4-1.7 3.8h-14.3c-1.7 0-3 1.3-3 3v36.7c0 1.7 1.3 3 3 3h23.7v44.1c0 6.6 5.4 11.9 11.9 11.9 3.6 0 6.7-1.6 8.9-4 2.2 2.5 5.4 4 8.9 4 6.6 0 11.9-5.4 11.9-11.9v-71.7c.8.2 1.7.3 2.5.3 6.8 0 12.3-5.5 12.3-12.3 0-3.4-1.4-6.5-3.6-8.7v-50.3zm-51-48.5c.1-.5.3-.9.5-1.4l.4-1 .5-1.1c.2-.3.4-.7.5-1 .2-.4.5-.8.7-1.1l.5-.7c.5-.6.9-1.2 1.5-1.7l.4-.4c.4-.4.8-.8 1.3-1.2l.6-.5 1.3-1c.2-.1.4-.3.7-.4.5-.3 1-.6 1.5-.8l.6-.3 2.1-.9h.1c1.1-.4 2.3-.7 3.5-.9 1.2-.4 2.4-.5 3.6-.5.5 0 1 0 1.5.1 3.7.3 7.2 1.5 10.2 3.5h.1l-32.2 11.8c0-.2.1-.4.1-.5zm.2 13.4c-.7-2.1-1.1-4.2-1.2-6.3l38-13.8c1.4 1.8 2.5 3.8 3.3 6 3.9 11.1-2 23.2-13 27.1-2.3.8-4.7 1.2-7 1.2-9 .1-17.1-5.6-20.1-14.2zm17.8 25v-4.8h4.5v4.7h-4.5zm4.6 6v43.8h-4.5v-43.8h4.5zm-26.3 4.1c0-4.3 3.2-8.2 8.1-11-1.8 3.2-2.9 6.9-2.9 11v46.6l-1-.1c-1.5 0-2.9.3-4.3.8v-47.3zm-2.1 58.9c0-1.1.3-2.1.8-3 .3-.6.8-1.2 1.3-1.7 1.1-1 2.6-1.7 4.3-1.7.3 0 .7 0 1 .1 1.1.2 2.2.7 3 1.4.6.5 1.2 1.2 1.6 1.9.5.9.8 1.9.8 3s-.3 2.1-.8 3c-.5.9-1.2 1.8-2.1 2.3-.9.6-1.9.9-3 1h-.4c-.9 0-1.8-.2-2.6-.6-1.3-.6-2.3-1.6-3-2.8-.6-.8-.9-1.8-.9-2.9zm21.7 83.8c0 3.3-2.7 5.9-5.9 5.9-3.3 0-5.9-2.7-5.9-5.9v-44.1h11.9v44.1zm-38.6-50.1v-30.6h11.3c1.1 4.5 4.8 8.1 9.4 9.1.8.2 1.7.3 2.6.3h.4c1 0 2-.2 3-.5 4.2-1.2 7.5-4.6 8.6-8.9h11.3v30.6h-46.6zm56.4 50.1c0 3.3-2.7 5.9-5.9 5.9-3.3 0-5.9-2.7-5.9-5.9v-44.1h5c1.7 0 3-1.3 3-3v-33.6h.4c.6 2.3 1.8 4.3 3.4 5.9v74.8zm0-92.7c-1.7 1.6-2.9 3.6-3.4 5.9h-17.8c-.7-2.9-2.5-5.5-5-7.2v-48.7c0-4.4 1.7-8.4 4.5-11.2v53.8c0 1.7 1.3 3 3 3h10.5c1.7 0 3-1.3 3-3v-54.4c3.1 2.7 5.2 7 5.2 11.8v50zm11.3-50v46.9c-.9-.2-1.8-.3-2.8-.3-.9 0-1.7.1-2.5.3v-46.9c0-4-1.1-7.8-2.9-11 5 2.8 8.2 6.7 8.2 11zm2.8 61.9c-1.1 2-3.1 3.3-5.6 3.3-.9 0-1.7-.2-2.5-.5-1.3-.6-2.3-1.5-3-2.7v-.1c-.5-.9-.8-1.9-.8-3s.3-2.1.8-3v-.1c.7-1.2 1.7-2.2 3-2.7.8-.3 1.6-.5 2.5-.5 1 0 1.9.2 2.8.7 1.3.6 2.4 1.7 3 3.1.4.8.6 1.7.6 2.6 0 1-.3 2-.8 2.9zm116.4-35.3c-7.5 0-14.5 2.9-19.8 8.2-5.3-5.3-12.3-8.2-19.8-8.2-1.8 0-3.5.2-5.2.5v-27.2c0-8.2-6.5-15.1-16.3-18.6 5.4-3.2 9.7-8.2 11.9-14.4 1.5-4.3 1.9-8.8 1.2-13.2v-.1c-.1-.7-.2-1.3-.4-1.9l-.5-2-.1-.3-.6-1.7-.2-.5-.5-1.2c-.7-1.4-1.4-2.6-2.3-3.9l-.1-.1-1.2-1.5c-.1-.1-.1-.2-.2-.2-1.6-1.9-3.5-3.6-5.6-5.1-.3-.2-.5-.4-.8-.5l-1.1-.6-1.2-.6-.9-.4c-.7-.3-1.5-.6-2.3-.9-2.9-1-6-1.5-9-1.5-11.6-.1-21.9 7.2-25.7 18.2-.3.8-.5 1.6-.7 2.4-.1.4-.2.7-.2 1.1-.1.4-.2.8-.2 1.2l-.2 1.5c0 .2 0 .4-.1.7-.1.6-.1 1.2-.1 1.8v.5c0 .2 0 .4.1.6.2 9.3 5.2 18.1 13.3 22.9-9.7 3.4-16.3 10.4-16.3 18.6v49.4c-2.7 2.3-4.5 5.7-4.5 9.5 0 6.8 5.5 12.3 12.3 12.3l-5.5 23.1c-.1.4-.2.7-.2 1.2 0 1.7 1.3 3 3 3h6.1v43.9c0 6.6 5.4 12 11.9 12 3.6 0 6.7-1.6 8.9-4.1 2.2 2.5 5.4 4.1 8.9 4.1 6.6 0 11.9-5.4 11.9-12v-44.2h11.4c8.5 6.3 16.3 10.1 18.8 11.1l2.2.9 2.2-.9c3.1-1.2 14.5-6.8 25.2-16.3 13.5-11.9 20.6-25.2 20.6-38.6 0-15.4-12.6-28-28.1-28zm-62.1 11.3c-3.5 4.7-5.6 10.5-5.6 16.8v1h-17.7c-.5-1.8-1.4-3.5-2.5-4.9v-51c0-7.5 4.8-13.7 11.1-14.7h.5l1.4.1c.5 0 .9 0 1.4-.1h.4c6.2 1 11.1 7.2 11.1 14.7v38.1zm4.4 32.9c-.6-1.1-1.1-2.2-1.5-3.4h25.4c.8 0 1.6-.3 2.1-.9.3-.3.6-.8.7-1.2l1.7-5.4 3.6 17.5.1.3c.3 1.4 1.5 2.4 2.9 2.4s2.7-1 2.9-2.5l2.5-13.6.9 1.9c.5 1.1 1.6 1.7 2.7 1.7h18.3c1.7 0 3-1.3 3-3s-1.3-3-3-3h-16.4l-4.1-8.7c-.6-1.2-1.8-1.9-3.1-1.7-1.3.2-2.3 1.2-2.6 2.4l-1.4 7.6-2.9-14.2c-.3-1.3-1.4-2.3-2.8-2.4-1.4-.1-2.6.8-3 2.1l-2.7 8.9-1.7 5.7h-23.6c-.4 0-.7.1-1 .2l-.3.1c-.5-2.3-.8-4.6-.8-7 0-5.6 2.1-10.8 5.6-14.7 1.5-1.7 3.3-3.2 5.3-4.3 1.8-1.1 3.9-1.9 6-2.4 1.7-.4 3.4-.6 5.2-.6 6 0 11.6 2.4 15.8 6.7 1.1 1.1 2.5 1.6 4 1.6s3-.5 4-1.6c4.2-4.3 9.8-6.7 15.8-6.7 12.2 0 22.1 9.9 22.1 22.1 0 27.8-35.5 46.8-41.9 49.3-1.7-.7-5.6-2.6-10.4-5.5-2.7-1.7-5.6-3.7-8.6-6-7-5.6-14.4-12.9-18.8-21.7zm6.9-70.9v29.1c-1.9.8-3.6 1.8-5.3 3v-32.2c0-4-1-7.7-2.8-10.8 4.9 2.7 8.1 6.6 8.1 10.9zm-19-62.7c.7.2 1.3.3 1.9.6.9.3 1.7.7 2.5 1.1l.5.3c.7.4 1.4.8 2.1 1.3l.1.1c1.5 1.1 2.9 2.4 4.1 3.8l.1.1c.6.7 1.1 1.5 1.6 2.3 0 0 .1.1.1.2.5.8.9 1.5 1.3 2.3v.1c.4.8.7 1.6.9 2.4l.1.4c.2.7.4 1.5.5 2.3 0 .1 0 .2.1.3-9.1-1.4-16.3-8.6-17.7-17.7l.6.1c.3-.1.7-.1 1.2 0zm-26.1 17.1l.3-1.5c.2-.7.3-1.3.6-1.9.3-.9.7-1.7 1.1-2.5l.2-.3c.4-.8.8-1.5 1.3-2.2l.2-.3c.5-.7 1.1-1.4 1.7-2l.1-.1c.4-.4.8-.8 1.3-1.2l.9-.7 1.4-1.1.4-.3c.5-.3 1-.6 1.6-.9.5-.3 1-.5 1.5-.7 0 0 .1 0 .1-.1.5-.2 1.1-.4 1.7-.6h.1c.5-.2 1.1-.3 1.7-.5l.9-.2.7-.1h.1c-1.2 8-6.9 14.5-14.4 17l-.4.1c-.9.3-1.9.5-2.9.7-.3-.4-.3-.5-.2-.6zm-.2 6.4c9.2-1.1 17-6.8 21.1-14.7 4.1 7.9 11.9 13.6 21.1 14.7-.2 1.4-.5 2.9-1 4.2-2.8 7.9-9.9 13.4-18.1 14.1h-.6l-1.4.1c-.4 0-.9 0-1.3-.1h-.6c-1.7-.2-3.4-.5-5.1-1.1-7.8-2.7-13-9.5-14.1-17.2zm-3.1 39.2c0-4.3 3.2-8.2 8.1-10.9-1.8 3.2-2.8 6.9-2.8 10.8v47.1c-1.1-.3-2.2-.5-3.4-.5-.6 0-1.3.1-1.9.2v-46.7zm-3.8 61.7c-.4-.8-.7-1.8-.7-2.8 0-1.5.6-2.9 1.5-4 .8-.9 1.8-1.7 3-2 .6-.2 1.2-.3 1.9-.3 1.2 0 2.4.4 3.4 1 .9.6 1.6 1.3 2.1 2.2v.1c.5.9.7 1.8.8 2.9v.1c0 1-.3 1.9-.7 2.8 0 0 0 .1-.1.1-.2.3-.3.6-.5.8-.5.6-1 1.2-1.7 1.6-.6.4-1.2.7-1.9.8-.5.1-.9.2-1.4.2-2.5.1-4.6-1.4-5.7-3.5zm6.8 30.9l5.5-23.2c1-.7 2-1.5 2.8-2.4 1.2-1.5 2.1-3.2 2.6-5.1h1.1v30.7h-12zm20.2 50.1c0 3.3-2.7 6-5.9 6-3.3 0-5.9-2.7-5.9-6v-44.2h11.9v44.2zm17.9 0c0 3.3-2.7 6-5.9 6s-5.9-2.7-5.9-6v-44.2h11.9v44.2zm-20.1-50.1v-30.7h11.2c2 10.7 8.4 21.2 19 30.7h-30.2z"/></svg>