<?xml version="1.0" encoding="UTF-8"?>
<svg width="24px" height="24px" viewBox="0 0 24 24" version="1.1" xmlns="http://www.w3.org/2000/svg" xmlns:xlink="http://www.w3.org/1999/xlink">
    <!-- Generator: Sketch 48.1 (47250) - http://www.bohemiancoding.com/sketch -->
    <title>Group 369</title>
    <desc>Created with Sketch.</desc>
    <defs></defs>
    <g id="A" stroke="none" stroke-width="1" fill="none" fill-rule="evenodd" transform="translate(-1272.000000, -23.000000)" stroke-linejoin="round">
        <g id="Group-5" transform="translate(1254.000000, 14.000000)" stroke="#FFFFFF">
            <g id="Group-369" transform="translate(18.000000, 9.000000)">
                <polyline id="Stroke-4331" stroke-linecap="round" points="23.5 15 23.5 17.5 21 17.5"></polyline>
                <path d="M14.5,17.5 C15.118,15.754 17.041,14.5 19,14.5 C20.959,14.5 22.882,15.752 23.5,17.5" id="Stroke-4332" stroke-linecap="round"></path>
                <polyline id="Stroke-4333" stroke-linecap="round" points="14.5 23 14.5 20.5 17 20.5"></polyline>
                <path d="M23.5,20.5 C22.882,22.246 20.959,23.5 19,23.5 C17.041,23.5 15.118,22.248 14.5,20.5" id="Stroke-4334" stroke-linecap="round"></path>
                <path d="M12.5,14.5 L12.5,11.696" id="Stroke-4335" stroke-linecap="round"></path>
                <path d="M7.5,11.6958 L7.5,14.4998 L2.491,16.2888 C1.297,16.7158 0.5,17.8468 0.5,19.1138 L0.5,21.4998 L11.5,21.4998" id="Stroke-4336" stroke-linecap="round"></path>
                <path d="M15,6.5 C15,9.813 12.761,12.5 10,12.5 C7.238,12.5 5,9.813 5,6.5 C5,3.187 7.238,0.5 10,0.5 C12.761,0.5 15,3.187 15,6.5 L15,6.5 Z" id="Stroke-4337"></path>
                <path d="M14.9531,5.9531 C14.7851,5.9741 14.6691,5.9671 14.5001,6.0001 C12.7971,6.3281 11.7031,5.7111 10.7661,4.0701 C10.2031,5.1481 8.4441,6.0001 7.0001,6.0001 C6.2891,6.0001 5.6771,5.8541 5.0641,5.5341" id="Stroke-4338"></path>
            </g>
        </g>
    </g>
</svg>