<svg xmlns="http://www.w3.org/2000/svg" viewBox="64 0 352 224" enable-background="new 64 0 352 224"><style type="text/css">.st0{fill:#B0DFDB;} .st1{fill:#A6A6A6;} .st2{fill:none;} .st3{fill:#404040;}</style><path class="st0" d="M117.2 166.9l-.2-.1c-5-1.9-8.3-6.8-8.3-12.1v-142c0-3.8 3.1-6.8 6.8-6.8h247.7c3.8.1 6.8 3.1 6.8 6.9v142c0 5.3-3.3 10.2-8.3 12.1l-.2.1h-244.3zm38.7-133.8c-1.4 0-2.5 1.1-2.5 2.5v104.8c0 1.4 1.1 2.5 2.5 2.5h167c1.4 0 2.5-1.1 2.5-2.5v-38.2c0-1.4-1.1-2.5-2.5-2.5s-2.5 1.1-2.5 2.5v35.7h-162v-99.8h130.5c1.4 0 2.5-1.1 2.5-2.5s-1.1-2.5-2.5-2.5h-133zm124.9 67.7c-1.4 0-2.5 1.1-2.5 2.5s1.1 2.5 2.5 2.5h15.2c1.4 0 2.5-1.1 2.5-2.5s-1.1-2.5-2.5-2.5h-15.2zm-32.7 0c-1.4 0-2.5 1.1-2.5 2.5s1.1 2.5 2.5 2.5h15.2c1.4 0 2.5-1.1 2.5-2.5s-1.1-2.5-2.5-2.5h-15.2zm-32.7 0c-1.4 0-2.5 1.1-2.5 2.5s1.1 2.5 2.5 2.5h15.2c1.4 0 2.5-1.1 2.5-2.5s-1.1-2.5-2.5-2.5h-15.2zm-32.6 0c-1.4 0-2.5 1.1-2.5 2.5s1.1 2.5 2.5 2.5h15.2c1.4 0 2.5-1.1 2.5-2.5s-1.1-2.5-2.5-2.5h-15.2zm138.3-67.7c-12.2 0-22.1 11.3-22.1 25.3 0 10.9 5.1 20 13.7 24.3 3.4 1.7 7 2.5 10.8 2.5 5.7 0 11.3-1.9 16.1-5.5.5-.4.9-1 1-1.6.1-.7-.1-1.3-.5-1.8-.5-.6-1.2-1-2-1-.5 0-1.1.2-1.5.5-3.9 2.9-8.6 4.5-13.2 4.5-3 0-5.9-.7-8.6-2-6-3-9.8-8.8-10.8-16.2l-.1-1.1h36.7c.7 0 1.3-.3 1.8-.7.5-.5.7-1.1.7-1.8.1-14-9.8-25.4-22-25.4zm-17.1 22.8l.2-1.2c1.5-9.6 8.6-16.6 16.9-16.6 8.3 0 15.4 7 16.9 16.6l.2 1.2h-34.2z"/><path class="st1" d="M85.5 218c-8.5 0-15.6-6.9-15.8-15.3v-1h150l4 2.8c.4.3.9.5 1.4.5h28.4c.5 0 1-.2 1.4-.5l4-2.8h150v1c-.2 8.5-7.3 15.3-15.8 15.3h-307.6zm140.4-18.1l-4.1-2.9c-.2-.2-.6-.3-1-.4h-146.2l27.1-20.6c3.4-2.6 7.7-4 12-4h251.3c4.3 0 8.5 1.4 12 4l27.1 20.6h-146.3c-.4.1-.7.2-1 .4l-4.1 2.9h-26.8z"/><path class="st2" d="M215.4 99.8c-1.9 0-3.5 1.6-3.5 3.5s1.6 3.5 3.5 3.5h15.2c1.9 0 3.5-1.6 3.5-3.5s-1.6-3.5-3.5-3.5h-15.2zm61.9 3.5c0 1.9 1.6 3.5 3.5 3.5h15.2c1.9 0 3.5-1.6 3.5-3.5s-1.6-3.5-3.5-3.5h-15.2c-1.9 0-3.5 1.6-3.5 3.5zm-94.5-3.5c-1.9 0-3.5 1.6-3.5 3.5s1.6 3.5 3.5 3.5h15.2c1.9 0 3.5-1.6 3.5-3.5s-1.6-3.5-3.5-3.5h-15.2zm65.3 0c-1.9 0-3.5 1.6-3.5 3.5s1.6 3.5 3.5 3.5h15.2c1.9 0 3.5-1.6 3.5-3.5s-1.6-3.5-3.5-3.5h-15.2zm74.8-1c-1.9 0-3.5 1.6-3.5 3.5v34.7h-160v-97.9h129.5c1.9 0 3.5-1.6 3.5-3.5s-1.6-3.5-3.5-3.5h-133c-1.9 0-3.5 1.6-3.5 3.5v104.8c0 1.9 1.6 3.5 3.5 3.5h167c1.9 0 3.5-1.6 3.5-3.5v-38.2c-.1-1.9-1.6-3.4-3.5-3.4zm-1.8-66.7c-12.8 0-23.1 11.8-23.1 26.3 0 11.3 5.3 20.7 14.3 25.2 3.5 1.8 7.4 2.6 11.3 2.6 5.8 0 11.7-1.9 16.7-5.7 1.5-1.2 1.9-3.3.7-4.9-1.2-1.5-3.3-1.9-4.9-.7-6.3 4.7-14.2 5.7-20.7 2.4-5.7-2.9-9.3-8.4-10.2-15.4h35.6c1.9 0 3.5-1.6 3.5-3.5-.1-14.5-10.5-26.3-23.2-26.3zm-15.9 22.8c1.4-9 8-15.8 15.9-15.8s14.5 6.8 15.9 15.8h-31.8z"/><path class="st3" d="M413.3 196l-32.7-24.9c-2.7-2-5.7-3.5-8.9-4.4 2.7-3.3 4.3-7.5 4.3-12v-142c0-7-5.7-12.7-12.8-12.7h-247.7c-7.1 0-12.8 5.7-12.8 12.8v142c0 4.6 1.6 8.8 4.3 12-3.2.9-6.3 2.3-8.9 4.4l-33 25.1c-.7.5-1.1 1.2-1.3 2l-.1.6v3.3c0 12 9.8 21.8 21.8 21.8h307.6c12 0 21.8-9.8 21.8-21.8v-3.2c.1-1.2-.6-2.4-1.6-3zm-327.8 21c-8 0-14.6-6.4-14.8-14.4h148.7l3.7 2.6c.6.4 1.3.6 2 .6h28.4c.7 0 1.4-.2 2-.6l3.7-2.6h148.8c-.2 8-6.8 14.4-14.8 14.4h-307.7zm134.9-21.4h-142.8l24.8-18.8c3.2-2.5 7.3-3.8 11.4-3.8h251.2c4.1 0 8.1 1.4 11.4 3.8l24.8 18.8h-142.9l-.6.1c-.5.1-1 .2-1.4.5l-3.8 2.7h-26.2l-3.8-2.7c-.4-.3-.9-.4-1.4-.5-.3-.1-.5-.1-.7-.1zm-110.7-182.8c0-3.2 2.6-5.8 5.8-5.8h247.7c3.2 0 5.8 2.6 5.8 5.8v142c0 5.1-3.2 9.4-7.7 11.1h-244c-4.5-1.7-7.7-6.1-7.7-11.1l.1-142zm202.6 70.8c3.5 1.8 7.4 2.6 11.3 2.6 5.8 0 11.7-1.9 16.7-5.7 1.5-1.2 1.9-3.3.7-4.9-1.2-1.5-3.3-1.9-4.9-.7-6.3 4.7-14.2 5.7-20.7 2.4-5.7-2.9-9.3-8.4-10.2-15.4h35.6c1.9 0 3.5-1.6 3.5-3.5 0-14.5-10.4-26.3-23.1-26.3s-23.2 11.8-23.2 26.3c0 11.3 5.3 20.7 14.3 25.2zm8.8-44.5c7.9 0 14.5 6.8 15.9 15.8h-31.8c1.4-9 8-15.8 15.9-15.8zm-165.2 104.8h167c1.9 0 3.5-1.6 3.5-3.5v-38.2c0-1.9-1.6-3.5-3.5-3.5s-3.5 1.6-3.5 3.5v34.7h-160v-97.8h129.5c1.9 0 3.5-1.6 3.5-3.5s-1.6-3.5-3.5-3.5h-133c-1.9 0-3.5 1.6-3.5 3.5v104.8c0 2 1.5 3.5 3.5 3.5zm26.9-44.1c-1.9 0-3.5 1.6-3.5 3.5s1.6 3.5 3.5 3.5h15.2c1.9 0 3.5-1.6 3.5-3.5s-1.6-3.5-3.5-3.5h-15.2zm32.6 0c-1.9 0-3.5 1.6-3.5 3.5s1.6 3.5 3.5 3.5h15.2c1.9 0 3.5-1.6 3.5-3.5s-1.6-3.5-3.5-3.5h-15.2zm32.7 0c-1.9 0-3.5 1.6-3.5 3.5s1.6 3.5 3.5 3.5h15.2c1.9 0 3.5-1.6 3.5-3.5s-1.6-3.5-3.5-3.5h-15.2zm29.2 3.5c0 1.9 1.6 3.5 3.5 3.5h15.2c1.9 0 3.5-1.6 3.5-3.5s-1.6-3.5-3.5-3.5h-15.2c-1.9 0-3.5 1.6-3.5 3.5z"/></svg>