<svg xmlns="http://www.w3.org/2000/svg" viewBox="64 0 352 224" enable-background="new 64 0 352 224"><style type="text/css">.st0{fill:#B0DFDB;} .st1{fill:#A6A6A6;} .st2{fill:#FFFFFF;} .st3{fill:#404040;}</style><path class="st0" d="M105.3 181.6c-4.3 0-7.8-3.5-7.8-7.8v-103.6c0-2.1 1.7-3.9 3.9-3.9h183.3c2.1 0 3.9 1.7 3.9 3.9v103.5c0 4.3-3.5 7.8-7.8 7.8h-175.5zm29.2-73.3c-2.3 0-4.1 1.8-4.1 4.1v24.3c0 2.3 1.8 4.1 4.1 4.1h24.3c2.3 0 4.1-1.8 4.1-4.1v-24.3c0-.8-.2-1.6-.7-2.2l-.3-.5 2.3-3.7c.6-.9.3-2.2-.7-2.8-.3-.2-.7-.3-1-.3-.7 0-1.3.4-1.7 1l-2.8 4.5h-23.5zm102.2 13.6c-1.1 0-2 .9-2 2s.9 2 2 2h19.2c1.1 0 2-.9 2-2s-.9-2-2-2h-19.2zm-60.2 0c-1.1 0-2 .9-2 2s.9 2 2 2h43.4c1.1 0 2-.9 2-2s-.9-2-2-2h-43.4z"/><path class="st1" d="M80.4 219c-6 0-11-4.6-11.4-10.6l-.1-1.1h109.7l2.9 2c.3.2.7.4 1.1.4h20.8c.4 0 .8-.1 1.1-.4l2.9-2h109.7l-.1 1.1c-.4 5.9-5.4 10.6-11.4 10.6h-225.2zm102.9-13.3l-3-2.1c-.2-.1-.5-.2-.8-.3h-106.6l19.5-14.8c2.5-1.9 5.6-2.9 8.7-2.9h184.1c3.1 0 6.2 1 8.7 2.9l19.5 14.8h-106.4l-.3.1c-.4.1-.6.2-.8.3l-3 2.1h-19.6z"/><path class="st2" d="M134.4 136.9v-24.6h21.2l-8.8 14.4-5-9c-.4-.6-1-1-1.7-1-.3 0-.7.1-1 .3-1 .5-1.3 1.8-.8 2.7l6.7 12c.3.6 1 1 1.7 1s1.4-.4 1.7-1l10.6-17.2v22.4h-24.6z"/><path class="st3" d="M134.5 141.9h24.3c2.8 0 5.1-2.3 5.1-5.1v-24.3c0-1-.3-2-.8-2.8l2-3.2c.9-1.4.4-3.3-1-4.1-1.4-.9-3.3-.4-4.1 1l-2.5 4h-23c-2.8 0-5.1 2.3-5.1 5.1v24.3c0 2.8 2.3 5.1 5.1 5.1zm23.4-23.9v17.9h-22.6v-22.6h18.4l-7 11.4-4.2-7.5c-.8-1.4-2.6-2-4.1-1.2-1.4.8-2 2.6-1.2 4.1l6.7 12c.5.9 1.5 1.5 2.6 1.5h.1c1 0 2-.5 2.6-1.4l8.7-14.2zm162.9 84.7l-23.9-18.2c-1.8-1.3-3.7-2.3-5.8-3 1.6-2.1 2.6-4.8 2.6-7.7v-103.6c0-4.9-4-8.9-8.9-8.9h-183.4c-4.9 0-8.9 4-8.9 8.9v103.5c0 2.9 1 5.6 2.6 7.7-2.1.7-4.1 1.7-5.8 3l-24.2 18.4c-.4.3-.7.8-.9 1.3-.1.1-.1.3-.1.4l-.1.6v2.3c0 9 7.4 16.4 16.4 16.4h225.4c9 0 16.4-7.4 16.4-16.4v-2.3c0-.9-.6-1.9-1.4-2.4zm-222.2-132.5c0-1.6 1.3-2.9 2.9-2.9h183.3c1.6 0 2.9 1.3 2.9 2.9v103.5c0 3.7-3 6.8-6.8 6.8h-175.6c-3.7 0-6.8-3-6.8-6.8l.1-103.5zm-5.6 119.1c2.3-1.8 5.2-2.7 8.1-2.7h184.1c2.9 0 5.8 1 8.1 2.7l17.1 13h-103.4c-.2 0-.3 0-.5.1-.4.1-.9.2-1.3.5l-2.7 1.9h-18.9l-2.7-1.9c-.4-.3-.8-.4-1.3-.5l-.5-.1h-103.2l17.1-13zm212.8 28.7h-225.4c-5.5 0-10-4.3-10.4-9.6h108.3l2.6 1.8c.5.4 1.1.5 1.7.5h20.8c.6 0 1.2-.2 1.7-.5l2.6-1.8h108.3c-.2 5.3-4.7 9.6-10.2 9.6zm-129.3-91.1h43.4c1.7 0 3-1.3 3-3s-1.3-3-3-3h-43.4c-1.7 0-3 1.3-3 3s1.4 3 3 3zm60.2 0h19.2c1.7 0 3-1.3 3-3s-1.3-3-3-3h-19.2c-1.7 0-3 1.3-3 3s1.3 3 3 3z"/></svg>