<svg xmlns="http://www.w3.org/2000/svg" viewBox="30 30 190 190">
  <style type="text/css">
  .st0 {
    fill: #E6E6E6;
  }

  .st1 {
    fill: #FFFFFF;
  }

  .st2 {
    fill: #DA291C;
  }

  .st3 {
    fill: #404040;
  }
  </style>
  <path class="st0" d="M102.5 207.9l-.1-.1c-3.3-2.9-7.4-4.5-11.8-4.5h-85.6v-153.5h83.4c8.8 0 15.9 7.1 15.9 15.9v143.9l-1.8-1.7zm-81.6-23.1c-1.1 0-2 .9-2 2s.9 2 2 2h67.1c1.1 0 2-.9 2-2s-.9-2-2-2h-67.1zm0-20.1c-1.1 0-2 .9-2 2s.9 2 2 2h67.1c1.1 0 2-.9 2-2s-.9-2-2-2h-67.1zm0-20.1c-1.1 0-2 .9-2 2s.9 2 2 2h67.1c1.1 0 2-.9 2-2s-.9-2-2-2h-67.1zm0-80.5c-1.1 0-2 .9-2 2v60.3c0 1.1.9 2 2 2h67.1c1.1 0 2-.9 2-2v-60.3c0-1.1-.9-2-2-2h-67.1zm87.4 1.6c0-8.8 7.1-15.9 15.9-15.9h83.4v153.5h-85.6c-4.3 0-8.5 1.6-11.8 4.5l-.2.2-1.7 1.5v-143.8zm15.9 119.1c-1.1 0-2 .9-2 2s.9 2 2 2h67.1c1.1 0 2-.9 2-2s-.9-2-2-2h-67.1zm0-20.1c-1.1 0-2 .9-2 2s.9 2 2 2h67.1c1.1 0 2-.9 2-2s-.9-2-2-2h-67.1zm0-20.1c-1.1 0-2 .9-2 2s.9 2 2 2h67.1c1.1 0 2-.9 2-2s-.9-2-2-2h-67.1zm0-20.1c-1.1 0-2 .9-2 2s.9 2 2 2h67.1c1.1 0 2-.9 2-2s-.9-2-2-2h-67.1zm0-20.1c-1.1 0-2 .9-2 2s.9 2 2 2h67.1c1.1 0 2-.9 2-2s-.9-2-2-2h-67.1zm0-20.2c-1.1 0-2 .9-2 2s.9 2 2 2h67.1c1.1 0 2-.9 2-2s-.9-2-2-2h-67.1zm0-20.1c-1.1 0-2 .9-2 2s.9 2 2 2h67.1c1.1 0 2-.9 2-2s-.9-2-2-2h-67.1z" />
  <path class="st1" d="M22.9 124.5v-56.4h63.1v56.3h-63.1zm20.6-41.5c-.4 0-.7.1-1 .3-.6.4-1 1-1 1.7v25.4c0 .7.4 1.4 1 1.7.3.2.6.3 1 .3s.7-.1 1-.3l22-12.7c.6-.4 1-1 1-1.7s-.4-1.4-1-1.7l-22-12.7c-.3-.2-.7-.3-1-.3z" />
  <path class="st2" d="M45.5 88.5l16 9.2-16 9.3z" />
  <path class="st3" d="M209.5 44.8h-85.4c-7.6 0-14.2 4.1-17.9 10.1-3.7-6.1-10.3-10.1-17.9-10.1h-85.3c-1.7 0-3 1.3-3 3v157.5c0 1.7 1.3 3 3 3h87.6c7 0 12.7 5.7 12.7 12.7 0 1.7 1.3 3 3 3s3-1.3 3-3c0-7 5.7-12.7 12.7-12.7h87.6c1.7 0 3-1.3 3-3v-157.5c-.1-1.7-1.4-3-3.1-3zm-203.5 6h82.4c8.2 0 14.9 6.7 14.9 14.9v141.6c-.1-.1-.2-.1-.2-.2-3.3-3-7.7-4.8-12.5-4.8h-84.6v-151.5zm200.5 151.5h-84.6c-4.8 0-9.1 1.8-12.5 4.8-.1.1-.2.1-.2.2v-141.6c0-8.2 6.7-14.9 14.9-14.9h82.4v151.5zm-185.6-72.8h67.1c1.7 0 3-1.3 3-3v-60.4c0-1.7-1.3-3-3-3h-67.1c-1.7 0-3 1.3-3 3v60.3c0 1.7 1.4 3.1 3 3.1zm3-60.4h61.1v54.3h-61.1v-54.3zm43.1 26l-22-12.7c-.9-.5-2.1-.5-3 0-.9.5-1.5 1.5-1.5 2.6v25.4c0 1.1.6 2.1 1.5 2.6.5.3 1 .4 1.5.4s1-.1 1.5-.4l22-12.7c.9-.5 1.5-1.5 1.5-2.6s-.6-2-1.5-2.6zm-20.5-4.9l13 7.5-13 7.5v-15zm-25.6 59.4h67.1c1.7 0 3-1.3 3-3s-1.3-3-3-3h-67.1c-1.7 0-3 1.3-3 3s1.4 3 3 3zm0 20.1h67.1c1.7 0 3-1.3 3-3s-1.3-3-3-3h-67.1c-1.7 0-3 1.3-3 3s1.4 3 3 3zm70.1 17.1c0-1.7-1.3-3-3-3h-67.1c-1.7 0-3 1.3-3 3s1.3 3 3 3h67.1c1.7 0 3-1.3 3-3zm100.4-43.2h-67.1c-1.7 0-3 1.3-3 3s1.3 3 3 3h67.1c1.7 0 3-1.3 3-3s-1.4-3-3-3zm0 20.1h-67.1c-1.7 0-3 1.3-3 3s1.3 3 3 3h67.1c1.7 0 3-1.3 3-3s-1.4-3-3-3zm0 20.1h-67.1c-1.7 0-3 1.3-3 3s1.3 3 3 3h67.1c1.7 0 3-1.3 3-3s-1.4-3-3-3zm0-100.6h-67.1c-1.7 0-3 1.3-3 3s1.3 3 3 3h67.1c1.7 0 3-1.3 3-3s-1.4-3-3-3zm-70.2-17.1c0 1.7 1.3 3 3 3h67.1c1.7 0 3-1.3 3-3s-1.3-3-3-3h-67.1c-1.6 0-3 1.4-3 3zm70.2 37.3h-67.1c-1.7 0-3 1.3-3 3s1.3 3 3 3h67.1c1.7 0 3-1.3 3-3s-1.4-3-3-3zm0 20.1h-67.1c-1.7 0-3 1.3-3 3s1.3 3 3 3h67.1c1.7 0 3-1.3 3-3s-1.4-3-3-3z" />
</svg>