<svg xmlns="http://www.w3.org/2000/svg" viewBox="0 0 128 224" enable-background="new 0 0 128 224"><style type="text/css">.st0{fill:#666666;} .st1{fill:#776655;} .st2{fill:#E6D1B8;} .st3{fill:#DA291C;} .st4{fill:#FFFFFF;} .st5{fill:#404040;}</style><path class="st0" d="M27.6 21.1c0-.1.1-.2.1-.4 0-.1 0-.1.1-.2.2-.5.3-1 .5-1.4l.4-1c.2-.4.4-.8.6-1.1l.1-.1.5-.9c.2-.4.5-.8.8-1.2l.2-.3c.1-.2.2-.4.4-.5l1.5-1.8.3-.3.1-.1c.5-.5.9-.9 1.4-1.3.1-.1.3-.2.4-.4l.2-.1c.5-.4.9-.7 1.4-1 .2-.2.5-.3.7-.4.4-.3.9-.6 1.5-.9l.2-.1c.2-.1.3-.2.5-.2.8-.4 1.5-.7 2.2-.9h.1c1.2-.4 2.4-.7 3.6-.9 1.1-.5 2.3-.6 3.6-.6.5 0 1.1 0 1.6.1 3.8.3 7.5 1.6 10.7 3.7l1.4 1-1.5.8-34.1 12.4.5-1.9zm-3.6 48.3c0-4.5 3.2-8.8 8.7-11.8l3.1-1.7-1.8 3.1c-1.8 3.2-2.7 6.8-2.7 10.5v47.7l-1.1-.1h-.9c-1.3 0-2.6.2-3.9.7l-1.3.5v-48.9zm49.5 47.9c-.9-.2-1.7-.3-2.5-.3s-1.5.1-2.3.2l-1.2.2v-26l1.7 2c1.5 1.7 3.2 3.2 5.1 4.6l.4.3v19.4l-1.2-.4zm-17 101.7c-3.8 0-6.9-3.1-6.9-6.9v-45.1h6c1.1 0 2-.9 2-2v-34.6h2.2l.2.8c.5 2.1 1.6 4 3.2 5.4l.3.3v75.3c-.1 3.7-3.2 6.8-7 6.8zm-17.9 0c-3.8 0-6.9-3.1-6.9-6.9v-45.1h13.9v45.1c0 3.8-3.2 6.9-7 6.9z"/><path class="st1" d="M5 163v-32.6h13.1l.2.8c1 4.2 4.4 7.4 8.6 8.3.8.2 1.6.3 2.4.3h.4c.9 0 1.9-.2 2.8-.4 3.9-1.1 6.9-4.2 7.9-8.1l.2-.8h13.1v32.5h-48.7z"/><path class="st2" d="M49 49.6c-9.4 0-17.9-6-21-14.9-.7-2.1-1.2-4.3-1.2-6.6v-.7l39.3-14.4.4.6c1.5 1.9 2.7 4.1 3.5 6.3 4.1 11.6-2.1 24.3-13.7 28.4-2.3.9-4.8 1.3-7.3 1.3zm-19.7 86.1c-1 0-2-.2-3-.7-1.4-.7-2.7-1.8-3.4-3.2-.6-1.1-.9-2.3-.9-3.5 0-1.2.3-2.4.9-3.5.4-.7.9-1.4 1.5-1.9 1.4-1.3 3.1-2 5-2 .4 0 .8.1 1.1.1 1.3.2 2.5.7 3.5 1.6.7.6 1.3 1.3 1.8 2.2.6 1.1.9 2.3.9 3.5s-.3 2.4-.9 3.5c-.6 1.1-1.5 2-2.5 2.7-1 .7-2.2 1-3.5 1.1-.3.1-.4.1-.5.1zm41.6 0c-1 0-2-.2-2.9-.6-1.4-.6-2.7-1.8-3.5-3.2-.7-1.2-1-2.4-1-3.6s.3-2.4.9-3.5c.8-1.5 2.1-2.6 3.5-3.3.9-.4 1.9-.6 2.9-.6 1.1 0 2.2.3 3.2.8 1.5.7 2.8 2 3.5 3.5.4 1 .7 2 .7 3 0 1.2-.3 2.4-.9 3.5-1.2 2.5-3.7 4-6.4 4z"/><path class="st3" d="M45.7 64.3h6.5v45.8h-6.5zm0-4v-6.6l1-.1h5.6v6.7z"/><path class="st4" d="M40.5 126.3l-.2-.8c-.7-2.7-2.3-5-4.6-6.6l-.4-.3v-49.2c0-4.5 1.7-8.8 4.7-11.9l1.7-1.7v56.2c0 1.1.9 2 2 2h10.5c1.1 0 2-.9 2-2v-56.6l1.7 1.4c2.4 2 4.1 4.8 4.9 8.1l.1.3-.1.3c-.8 2.7-1.1 5.4-1.1 8.2 0 3.4.6 6.7 1.7 9.9l.1.2v36.2l-.3.3c-1.5 1.5-2.6 3.4-3.2 5.4l-.2.8h-19.3zm50.8-27c-4.2 0-8.4-1.1-12.1-3-2.3-1.2-4.4-2.8-6.2-4.7-2.4-2.4-4.2-5.3-5.5-8.4-1.2-3-1.8-6.2-1.8-9.5 0-2.9.5-5.8 1.5-8.5.5-1.4 1.1-2.8 1.8-4.1 1-1.8 2.3-3.6 3.8-5.1 4.9-5.2 11.5-8 18.6-8 14.2 0 25.7 11.5 25.7 25.7-.1 14.1-11.6 25.6-25.8 25.6zm2-12.5v-11.2h11.1v-4h-11.1v-11.1h-4v11.1h-11.1v4h11.1v11.1h4z"/><path class="st5" d="M91.3 43c-9.1 0-17.2 4-22.8 10.2-1.7-.9-3.6-1.8-5.6-2.4 10.9-6.5 16.2-20 11.8-32.5-1.3-3.6-3.3-6.9-5.8-9.6l-.1-.1-.2-.2c-.5-.6-1.1-1.1-1.7-1.6-.1-.1-.2-.1-.2-.2-.6-.6-1.3-1.1-2.1-1.6-.7-.5-1.5-1-2.3-1.4l-.2-.1c-2.3-1.3-4.9-2.3-7.5-2.8-.1 0-.2 0-.4-.1-.7-.1-1.5-.3-2.2-.3-.2 0-.3 0-.5-.1-.8-.1-1.6-.2-2.5-.2-1.5 0-3.1.1-4.6.4-1.5.3-3 .6-4.5 1.2l-2.3.9-.7.3c-.5.2-1 .5-1.5.8-.1.1-.4.3-.6.4-.6.3-1.1.7-1.6 1.1l-.4.3-1.8 1.4c-.2.2-.4.4-.6.5l-1.2 1.2-.5.5c-.6.6-1.1 1.3-1.6 1.9-.5.7-1 1.4-1.4 2.1 0 .1-.1.2-.1.2l-1.2 2.1s0 .1-.1.1v.1c-.4.8-.7 1.6-1 2.4-.3.7-.5 1.5-.7 2.2-.1.3-.2.6-.2.9l-.3 1.2c-.1.4-.2.8-.2 1.2 0 .3-.1.6-.1.8 0 .4-.1.9-.1 1.4v.5c-.1 3.4.3 6.8 1.5 10.1 2.2 6.3 6.6 11.4 12.1 14.6-9.7 3.5-16.3 10.4-16.3 18.6v52.1c-.8 1.2-1.3 2.4-1.7 3.8h-14.3c-1.7 0-3 1.3-3 3v36.7c0 1.7 1.3 3 3 3h23.7v44.1c0 6.6 5.4 11.9 11.9 11.9 3.6 0 6.7-1.6 8.9-4 2.2 2.5 5.4 4 8.9 4 6.6 0 11.9-5.4 11.9-11.9v-71.7c.8.2 1.7.3 2.5.3 6.8 0 12.3-5.5 12.3-12.3 0-3.4-1.4-6.5-3.6-8.7v-17.7c3.6 1.5 7.5 2.3 11.6 2.3 16.9 0 30.7-13.8 30.7-30.7.2-16.9-13.6-30.6-30.5-30.6zm-11.6 52.4c-2.2-1.2-4.2-2.7-6-4.5-2.3-2.3-4.1-5-5.3-8.1-1.1-2.8-1.8-5.9-1.8-9.1 0-2.9.5-5.6 1.4-8.2.5-1.4 1.1-2.7 1.8-3.9 1-1.8 2.2-3.4 3.6-4.9 4.5-4.7 10.8-7.7 17.9-7.7 13.6 0 24.7 11 24.7 24.6s-11.1 24.7-24.7 24.7c-4.2 0-8.1-1.1-11.6-2.9zm-51-74.5c.1-.5.3-.9.5-1.4l.4-1 .5-1.1c.2-.3.4-.7.5-1 .2-.4.5-.8.7-1.1l.5-.7c.5-.6.9-1.2 1.5-1.7l.4-.4c.4-.4.8-.8 1.3-1.2l.6-.5 1.3-1c.2-.1.4-.3.7-.4.5-.3 1-.6 1.5-.8l.6-.3 2.1-.9h.1c1.1-.4 2.3-.7 3.5-.9 1.2-.4 2.4-.5 3.6-.5.5 0 1 0 1.5.1 3.7.3 7.2 1.5 10.2 3.5h.1l-32.2 11.8c0-.2.1-.4.1-.5zm.2 13.4c-.7-2.1-1.1-4.2-1.2-6.3l38-13.8c1.4 1.8 2.5 3.8 3.3 6 3.9 11.1-2 23.2-13 27.1-2.3.8-4.7 1.2-7 1.2-9 .1-17.1-5.6-20.1-14.2zm17.8 25v-4.8h4.5v4.7h-4.5zm4.6 6v43.8h-4.5v-43.8h4.5zm-26.3 4.1c0-4.3 3.2-8.2 8.1-11-1.8 3.2-2.9 6.9-2.9 11v46.6l-1-.1c-1.5 0-2.9.3-4.3.8v-47.3zm-2.1 58.9c0-1.1.3-2.1.8-3 .3-.6.8-1.2 1.3-1.7 1.1-1 2.6-1.7 4.3-1.7.3 0 .7 0 1 .1 1.1.2 2.2.7 3 1.4.6.5 1.2 1.2 1.6 1.9.5.9.8 1.9.8 3s-.3 2.1-.8 3c-.5.9-1.2 1.8-2.1 2.3-.9.6-1.9.9-3 1h-.4c-.9 0-1.8-.2-2.6-.6-1.3-.6-2.3-1.6-3-2.8-.6-.8-.9-1.8-.9-2.9zm21.7 83.8c0 3.3-2.7 5.9-5.9 5.9-3.3 0-5.9-2.7-5.9-5.9v-44.1h11.9v44.1zm-38.6-50.1v-30.6h11.3c1.1 4.5 4.8 8.1 9.4 9.1.8.2 1.7.3 2.6.3h.4c1 0 2-.2 3-.5 4.2-1.2 7.5-4.6 8.6-8.9h11.3v30.6h-46.6zm56.4 50.1c0 3.3-2.7 5.9-5.9 5.9-3.3 0-5.9-2.7-5.9-5.9v-44.1h5c1.7 0 3-1.3 3-3v-33.6h.4c.6 2.3 1.8 4.3 3.4 5.9v74.8zm0-92.7c-1.7 1.6-2.9 3.6-3.4 5.9h-17.8c-.7-2.9-2.5-5.5-5-7.2v-48.7c0-4.4 1.7-8.4 4.5-11.2v53.8c0 1.7 1.3 3 3 3h10.5c1.7 0 3-1.3 3-3v-54.4c2.2 1.9 3.8 4.5 4.6 7.6-.8 2.7-1.2 5.5-1.2 8.4 0 3.6.6 7 1.8 10.2v35.6zm14.1 11.9c-1.1 2-3.1 3.3-5.6 3.3-.9 0-1.7-.2-2.5-.5-1.3-.6-2.3-1.5-3-2.7v-.1c-.5-.9-.8-1.9-.8-3s.3-2.1.8-3v-.1c.7-1.2 1.7-2.2 3-2.7.8-.3 1.6-.5 2.5-.5 1 0 1.9.2 2.8.7 1.3.6 2.4 1.7 3 3.1.4.8.6 1.7.6 2.6 0 1-.3 2-.8 2.9zm-2.8-15c-.9-.2-1.8-.3-2.8-.3-.9 0-1.7.1-2.5.3v-22.3c1.6 1.8 3.3 3.3 5.3 4.7v17.6zm20.6-56.8h-6v11.1h-11.1v6h11.1v11.2h6v-11.2h11.2v-6h-11.2z"/></svg>