<svg xmlns="http://www.w3.org/2000/svg" viewBox="0 0 352 224" enable-background="new 0 0 352 224"><style type="text/css">.st0{fill:#E6D1B8;} .st1{fill:#CCCCCC;} .st2{fill:#B0DFDB;} .st3{fill:#404040;}</style><path class="st0" d="M5.9 219l.5-1.3c9.6-26 29.3-76.6 34.6-81.8 4.8-4.8 10.9-7.8 14.2-9.3l1.4-.6v21.4h-4.7c-1.1 0-2 .9-2 2s.9 2 2 2h46.1c4.2 0 7.6 3.4 7.6 7.6s-3.4 7.6-7.6 7.6h-24.5c-1.1 0-2 .9-2 2 0 7.3-2.3 14.4-6.6 20.5-.6.9-1.3 1.7-1.9 2.5l-2.1 2.3c-1.7 1.7-3.7 3.2-5.7 4.6l-.2.1-1.1.7c-1 .6-1.3 1.8-.7 2.7.4.6 1 1 1.7 1 .3 0 .7-.1 1-.3 3.7-2.1 7-4.8 9.8-8.1l.3-.4h27.6l-.6 1.4c-4.2 9.9-12.5 18.2-23.5 23.2l-.2.1h-63.4zm229.1 0l-35.3-55.6c-1.2-1.9-1.7-4.1-1.3-6.3s1.7-4.2 3.6-5.4c1.4-.9 3-1.5 4.7-1.5 2.8 0 5.5 1.4 7 3.7 0 .1.1.1.2.2l8.4 9.7c.4.4.9.7 1.5.7.2 0 .5 0 .7-.1.8-.3 1.3-1 1.3-1.9v-55.6c0-4.1 2.3-8.5 7.5-8.5s7.5 4.4 7.5 8.5v40.2c0 1.1.9 2 2 2s2-.9 2-2v-14.8c0-4.1 2.3-8.5 7.5-8.5 2.4 0 4.4 1 5.8 2.8 1.1 1.5 1.7 3.5 1.7 5.7v17c0 .7.4 1.3 1 1.7.3.2.7.3 1 .3.3 0 .7-.1 1-.3.6-.4 1-1 1-1.7v-9.8c0-4.1 2.3-8.5 7.5-8.5s7.5 4.4 7.5 8.5v15.9c0 1.1.9 2 2 2s2-.9 2-2v-9.9c0-4.1 2.3-8.5 7.5-8.5s7.5 4.4 7.5 8.5v19.8c-.3 1.4-7.4 35.2-9.1 42.7-2.4 10.7-13.9 11-14.4 11h-39.3z"/><path class="st1" d="M69 190.3l.9-1.5c3.2-5.3 5.1-11.2 5.5-17.3l.1-.9h22.5c6.4 0 11.6-5.2 11.6-11.6s-5.2-11.6-11.6-11.6h-37.5v-104.6c0-3.5 2.9-6.4 6.4-6.4h184.9c3.5 0 6.4 2.9 6.4 6.4v78.5l-1.4-.6c-1.5-.6-3-1-4.6-1-2.2 0-4.2.5-5.9 1.6l-1.5.9v-15.5c0-7.2-4.8-12.5-11.5-12.5-6.6 0-11.5 5.3-11.5 12.5v50.3l-4.8-5.5c-2.3-3.4-6.2-5.4-10.3-5.4-.6 0-1.1 0-1.7.1l-2 .3 1-1.8c4.3-7.6 6.6-16.3 6.6-25.1 0-28.2-23-51.2-51.2-51.2-28.2 0-51.2 23-51.2 51.2s23 51.2 51.2 51.2c12.2 0 24-4.4 33.3-12.3l1.5-1.3.1 2c.1 2.3.8 4.4 2.1 6.3l15.7 24.7h-143.1zm8-139.2c-1.1 0-2 .9-2 2s.9 2 2 2h165.7c1.1 0 2-.9 2-2s-.9-2-2-2h-165.7z"/><path class="st2" d="M159.4 167c-26 0-47.2-21.2-47.2-47.2 0-26 21.2-47.2 47.2-47.2 26 0 47.2 21.2 47.2 47.2 0 26-21.2 47.2-47.2 47.2zm13.4-43.9c-4.4 0-8 3.6-8 8s3.6 8 8 8 8-3.6 8-8-3.6-8-8-8zm4-22.7c-.5 0-1 .2-1.4.6l-34.8 34.8c-.4.4-.6.9-.6 1.4s.2 1 .6 1.4.9.6 1.4.6 1-.2 1.4-.6l34.8-34.8c.4-.4.6-.9.6-1.4s-.2-1-.6-1.4c-.4-.4-.9-.6-1.4-.6zm-30.8 0c-4.4 0-8 3.6-8 8s3.6 8 8 8 8-3.6 8-8-3.6-8-8-8zm0 12c-2.2 0-4-1.8-4-4s1.8-4 4-4 4 1.8 4 4-1.8 4-4 4zm26.8 22.7c-2.2 0-4-1.8-4-4s1.8-4 4-4 4 1.8 4 4-1.8 4-4 4z"/><path class="st3" d="M245.7 53.1c0-1.7-1.3-3-3-3h-165.7c-1.7 0-3 1.3-3 3s1.3 3 3 3h165.7c1.7 0 3-1.4 3-3zm44.5 78.9c-2.8 0-5.3.8-7.3 2.3-1.7-5.1-6.1-8.4-11.7-8.4-2.7 0-5.1.8-7 2.1-.2-.9-.6-1.7-1-2.5v-82.7c0-6.3-5.1-11.4-11.4-11.4h-184.8c-6.3 0-11.4 5.1-11.4 11.4v78.2c-2.6 1-11.4 4.6-18.1 11.3-7.6 7.6-34.2 79.5-37.2 87.7-.3.9-.2 1.9.4 2.8.4.7 1.3 1.2 2.3 1.2h66.7c.4 0 .8-.1 1.2-.3 13.3-5.9 23.3-16.2 27.6-28.5h115.5l17.4 27.3c.5.9 1.5 1.4 2.5 1.4h40.2c5.5 0 16.6-3.1 19.3-14.9 1.8-7.7 9.1-42.7 9.2-43.1l.1-.6v-19.9c0-7.7-5.3-13.4-12.5-13.4zm-221.1 86h-61.8c11.4-30.6 29.5-76.7 34.3-81.5 4.6-4.6 10.5-7.6 13.9-9.1v18.9h-3.7c-1.7 0-3 1.3-3 3s1.3 3 3 3h46.2c3.6 0 6.6 3 6.6 6.6 0 3.6-3 6.6-6.6 6.6h-24.5c-1.7 0-3 1.3-3 3 0 7.2-2.3 14.2-6.4 19.9-.6.8-1.2 1.6-1.9 2.4-.7.8-1.3 1.5-2.1 2.2-1.7 1.7-3.6 3.1-5.6 4.4-.4.3-.9.6-1.3.8-1.4.8-1.9 2.7-1.1 4.1.6 1 1.6 1.5 2.6 1.5.5 0 1-.1 1.5-.4 3.8-2.2 7.2-5 10.1-8.3h25.7c-4 9.8-12.1 17.9-22.9 22.9zm1.7-28.7c3.2-5.3 5.2-11.4 5.7-17.7h21.5c6.9 0 12.6-5.6 12.6-12.6 0-6.9-5.6-12.6-12.6-12.6h-36.5v-103.6c0-3 2.4-5.4 5.4-5.4h184.9c3 0 5.4 2.4 5.4 5.4v77c-1.5-.6-3.2-1-5-1-2.4 0-4.6.6-6.5 1.8v-13.7c0-7.8-5.3-13.5-12.5-13.5s-12.5 5.7-12.5 13.5v47.6l-3-3.5c-2.5-3.6-6.6-5.8-11.1-5.8-.6 0-1.3 0-1.9.1 4.3-7.6 6.7-16.3 6.7-25.6 0-28.8-23.4-52.2-52.2-52.2s-52.2 23.4-52.2 52.2 23.4 52.2 52.2 52.2c12.9 0 24.8-4.7 33.9-12.6.1 2.3.8 4.7 2.2 6.8l14.7 23.1h-139.2zm88.6-23.3c-25.5 0-46.2-20.7-46.2-46.2s20.7-46.2 46.2-46.2 46.2 20.7 46.2 46.2-20.7 46.2-46.2 46.2zm137.3-.9c-.7 3.5-7.4 35.4-9.1 42.7-2.3 10-12.9 10.2-13.4 10.2h-38.6l-35-55.1c-2.3-3.4-1.4-8.1 2-10.4 1.2-.8 2.7-1.3 4.2-1.3 2.5 0 4.8 1.2 6.2 3.3l.2.3 8.4 9.7c.8.9 2.1 1.3 3.3.8 1.2-.4 2-1.5 2-2.8v-55.6c0-3.7 2-7.5 6.5-7.5s6.5 3.8 6.5 7.5v40.2c0 1.7 1.3 3 3 3s3-1.3 3-3v-14.8c0-3.7 2-7.5 6.5-7.5 2.3 0 3.9 1 5 2.4 1 1.4 1.5 3.2 1.5 5.1v17c0 1.1.6 2 1.5 2.6.4.3 1 .4 1.5.4s1-.2 1.5-.4c.9-.5 1.5-1.5 1.5-2.6v-9.8c0-3.7 2-7.5 6.5-7.5s6.5 3.8 6.5 7.5v15.9c0 1.7 1.3 3 3 3s3-1.3 3-3v-9.9c0-3.7 2-7.5 6.5-7.5s6.5 3.8 6.5 7.5v19.6zm-150.7-47.7c5 0 9-4 9-9s-4-9-9-9-9 4-9 9 4 9 9 9zm0-12c1.7 0 3 1.3 3 3s-1.3 3-3 3-3-1.3-3-3 1.3-3 3-3zm26.8 16.7c-5 0-9 4-9 9s4 9 9 9 9-4 9-9-4.1-9-9-9zm0 12c-1.7 0-3-1.3-3-3s1.3-3 3-3 3 1.3 3 3-1.4 3-3 3zm6.1-33.9c-1.2-1.2-3.1-1.2-4.2 0l-34.8 34.8c-1.2 1.2-1.2 3.1 0 4.2.6.6 1.4.9 2.1.9s1.5-.3 2.1-.9l34.8-34.8c1.2-1.1 1.2-3 0-4.2z"/></svg>