<svg xmlns="http://www.w3.org/2000/svg" viewBox="64 0 286 224" enable-background="new 64 0 352 224">
  <style type="text/css">
  .st0 {
    fill: #CCCCCC;
  }

  .st1 {
    fill: #FFFFFF;
  }

  .st2 {
    fill: #DA291C;
  }

  .st3 {
    fill: #776655;
  }

  .st4 {
    fill: #808080;
  }

  .st5 {
    fill: #A6A6A6;
  }

  .st6 {
    fill: #666666;
  }

  .st7 {
    fill: #E6D1B8;
  }

  .st8 {
    fill: #AC9D8C;
  }

  .st9 {
    fill: #404040;
  }
  </style>
  <path class="st0" d="M74.4 127.3v-57.9c0-9.3 7.6-16.9 16.9-16.9 9.3 0 16.9 7.6 16.9 16.9v57.9h-33.8z" />
  <path class="st1" d="M189 127.3v-57.9c0-9.3 7.6-16.9 16.9-16.9s16.9 7.6 16.9 16.9v57.9h-33.8zm-57-.2v-57.6c0-9.3 6.7-16.9 14.9-16.9h3.4c8.2 0 14.9 7.6 14.9 16.9l.1 57.6h-33.3z" />
  <path class="st2" d="M123 163.9l8.6-34.8h34.2l8.6 34.8h-51.4zm123.2-36.6v-57.9c0-9.3 7.6-16.9 16.9-16.9 9.3 0 16.9 7.6 16.9 16.9v57.9h-33.8z" />
  <path class="st3" d="M68.8 20.5l1.3-2.8.6-1.2.1-.3c.3-.6.6-1.1.9-1.6l.3-.4.7-1 .4-.5c.3-.3.5-.6.7-.8l.5-.5.7-.7.5-.5c.3-.2.5-.5.7-.7l.6-.5.8-.6.6-.4c.3-.2.6-.4.8-.5l.6-.4.9-.5.6-.3c.3-.2.6-.3.9-.4l.6-.3c.3-.1.7-.2 1-.4l.7-.2c.4-.1.7-.2 1-.3l.7-.1c.4-.1.7-.1 1-.2l.7-.1c.4-.1.8-.1 1.2-.1l.6-.1c.6-.1 1.2-.1 1.8-.1 2.6 0 5.2.4 7.7 1.3l2.2.9.4.2c.5.2 1 .5 1.6.9l.4.3c.6.4 1.1.7 1.5 1l.4.3c.4.3.9.7 1.4 1.2l.4.4 1.2 1.2.5.6.9 1.2.4.6.2.3.7 1c.1.2.3.4.4.7l.2.3.6 1.1 1.5 3h-45.1z" />
  <path class="st4" d="M329.4 220c-4.4 0-7.9-3.6-7.9-7.9v-82.7h15.9v82.7c-.1 4.3-3.7 7.9-8 7.9zm-17.9 0c-4.4 0-7.9-3.6-7.9-7.9v-82.7h15.9v82.7c-.1 4.3-3.6 7.9-8 7.9zm-39.5 0c-4.4 0-7.9-3.6-7.9-7.9v-82.7h15.9v82.7c-.1 4.3-3.7 7.9-8 7.9zm-17.9 0c-4.4 0-7.9-3.6-7.9-7.9v-82.7h15.8v82.7c0 4.3-3.5 7.9-7.9 7.9zm-39.3 0c-4.4 0-7.9-3.6-7.9-7.9v-82.7h15.9v82.7c-.1 4.3-3.7 7.9-8 7.9zm-17.9 0c-4.4 0-7.9-3.6-7.9-7.9v-82.7h15.9v82.7c-.1 4.3-3.6 7.9-8 7.9zm-96.7 0c-4.4 0-7.9-3.6-7.9-7.9v-82.7h15.9v82.7c0 4.3-3.6 7.9-8 7.9zm-17.8 0c-4.4 0-7.9-3.6-7.9-7.9v-82.7h15.9v82.7c-.1 4.3-3.7 7.9-8 7.9z" />
  <path class="st5" d="M303.6 127.3v-57.9c0-9.3 7.6-16.9 16.9-16.9 4.5 0 8.7 1.8 11.9 4.9s4.9 7.4 4.9 11.9v57.9h-33.7z" />
  <path class="st6" d="M339.3 88.5v-19c0-6.3-3.2-12.2-8.5-15.8l-3-2 3.2-1.5c3.8-1.8 7.1-4.4 9.6-7.7l3.4-4.5 1.6 50.5h-6.3zm-44.1 0l1.6-50.5 3.4 4.5c2.5 3.3 5.8 5.9 9.5 7.7l3.3 1.5-3 2c-5.3 3.5-8.5 9.4-8.5 15.7v19h-6.3zm2.7-68l1.3-2.8.6-1.2.1-.3c.3-.6.6-1.1.9-1.6l.3-.4.7-1 .4-.5c.3-.3.5-.6.7-.8l.5-.5.7-.7.5-.5c.2-.2.5-.4.7-.7l.6-.5.8-.6.6-.4c.3-.2.6-.4.8-.5l.6-.4.9-.5.6-.3c.3-.2.6-.3.9-.4l.7-.3c.3-.1.7-.2 1-.4l.7-.2c.4-.1.7-.2 1-.3l.6-.2c.4-.1.7-.1 1-.2l.7-.1c.4-.1.8-.1 1.2-.1l.6-.1c.7-.1 1.3-.1 1.8-.1 2.6 0 5.2.4 7.7 1.3l2.2.9.4.2c.4.2 1 .5 1.6.9l.4.3c.6.4 1.1.7 1.5 1l.4.3c.4.3.9.7 1.4 1.2l.4.4 1.2 1.2.5.6.9 1.1.4.6.2.3c.2.3.4.6.6 1l.4.8.1.3c.2.3.4.7.5 1l1.6 3h-44.9z" />
  <path class="st7" d="M148.5 50.6c-2.5 0-5-.5-7.5-1.3-8.3-2.9-14.2-10.2-15.4-18.9l-.3-2 2-.2c8.4-1 15.7-6.1 19.5-13.6l1.8-3.5 1.8 3.5c3.9 7.6 11.2 12.7 19.6 13.6l2 .2-.3 2c-.2 1.6-.6 3.2-1.1 4.6-3.2 9.2-12 15.5-21.8 15.6h-.3zm114.5 0c-2.6 0-5.2-.4-7.7-1.3-10.1-3.5-16.4-13.4-15.5-24l.2-2.5 2.4.8c2.6.9 5.3 1.3 7.9 1.3 6.3 0 12.4-2.4 17.1-6.7l1.4-1.2 1.4 1.2c2.5 2.3 5.5 4.1 8.8 5.3 1.7.6 3.6 1 5.5 1.2l1.7.2.1 1.7c.1 2.9-.3 5.8-1.3 8.5-3.3 9.2-12.1 15.5-22 15.5zm-57.2 0c-2.6 0-5.2-.4-7.7-1.3-12.1-4.3-18.5-17.6-14.2-29.7 3.2-9.3 12.1-15.6 21.9-15.6 2.6 0 5.2.4 7.7 1.3 12.1 4.3 18.5 17.6 14.3 29.7-3.3 9.3-12.1 15.6-22 15.6zm114.6 0c-2.6 0-5.2-.4-7.7-1.3-5.9-2.1-10.6-6.3-13.3-11.9-1-2.1-1.7-4.4-2.1-6.8-.1-1-.2-2.1-.2-3.3 0-1.1.1-2.1.2-3l.2-1.7h45.7l.2 1.7c.1 1 .2 2 .2 3 0 1.2-.1 2.3-.2 3.3-.2 1.5-.6 3-1.1 4.4-3.2 9.3-12 15.6-21.9 15.6zm-229.1 0c-2.6 0-5.2-.4-7.7-1.3-5.9-2.1-10.6-6.3-13.3-11.9-2-4.1-2.7-8.6-2.1-13.1l.2-1.7h45.7l.2 1.7c.5 3.6.1 7.2-1.1 10.7-3.2 9.3-12 15.6-21.9 15.6z" />
  <path class="st8" d="M157.7 220c-4.4 0-7.9-3.6-7.9-7.9v-46.1h15.9v46c-.1 4.4-3.7 8-8 8zm-18 0c-4.4 0-7.9-3.6-7.9-7.9v-46.1h15.9v46c0 4.4-3.6 8-8 8zm29.8-194c-9.9-1.5-17.9-9.5-19.4-19.4l-.4-2.7 2.7.4c.7.1 1.4.2 2.1.4l2.1.6c.9.3 1.7.7 2.7 1.2l.5.3c.9.5 1.6.9 2.3 1.4l.1.1c1.7 1.2 3.2 2.6 4.6 4.2 2.7 3.3 4.5 7.2 5.1 11.3l.4 2.7-2.8-.5zm-44.2 0l.5-2.7.3-1.6c.2-.8.4-1.5.6-2.1.3-.9.7-1.8 1.2-2.7l.1-.3c.4-.9.9-1.7 1.5-2.5l.2-.3c.6-.8 1.2-1.6 1.8-2.3l.1-.1c3.5-3.8 8.3-6.3 13.4-7.1l2.7-.4-.4 2.7c-1.5 9.9-9.5 17.9-19.4 19.4h-2.6zm157.4-3.7c-1-.2-2.1-.5-3-.8-3-1.1-5.8-2.7-8.2-5l-1.3-1.2 1-1.4c1-1.4 1.8-3 2.5-4.5l1-2.3 2.6 1.8c.3.3.6.5.9.7l1 .9.8.8c.3.3.6.6.8.9l.1.1.7.9c.2.3.4.6.6.8l.3.4c.2.3.4.5.5.8l.8 1.4.6 1.3.7 1.6 1.5 3.8-3.9-1zm-32.3.5c-2.6 0-5.2-.4-7.7-1.3l-2.1-.8 1-2.4c.1-.2.2-.5.3-.8.1-.3.3-.6.4-.8l.4-.8.5-.8.4-.7c.2-.3.4-.6.6-.8l.5-.6.6-.8.5-.6c.2-.3.5-.5.7-.7l.5-.5.7-.7.6-.5c.3-.2.5-.4.7-.6l.6-.5c.3-.2.6-.4.8-.5l.7-.4c.3-.2.5-.3.8-.4l.8-.4c.3-.2.6-.3.9-.4l.7-.3.9-.3.8-.3c.3-.1.6-.2.9-.2l.8-.2c.4-.1.6-.1.9-.2l.8-.2c.4-.1.8-.1 1.2-.1l.3 2-.2-2 .5-.1c.6-.1 1.3-.1 1.8-.1h2c.8.1 1.6.2 2.6.4h.2c1 .2 2 .5 2.8.8l2.1.8-.6 1.9v.1c-.4 1-.9 2-1.4 3-.6 1.1-1.3 2.1-2 3-.7.9-1.5 1.7-2.3 2.5-4.5 4-10.1 6.3-16 6.3z" />
  <path class="st9" d="M214.8 1.5c-2.9-1-6-1.5-9-1.5-11.6 0-21.9 7.3-25.7 18.3-4.7 13.4 1.7 27.9 14.3 33.8-5.7 3.7-9.4 10.1-9.4 17.4v142.6c0 6.6 5.4 11.9 11.9 11.9 3.6 0 6.7-1.6 8.9-4 2.2 2.5 5.4 4 8.9 4 6.6 0 11.9-5.4 11.9-11.9v-142.7c0-7.3-3.7-13.7-9.4-17.4 6.5-3 11.8-8.6 14.3-15.7 5-14.2-2.5-29.8-16.7-34.8zm11.1 32.8c-3 8.5-11.1 14.2-20.1 14.2-2.4 0-4.8-.4-7-1.2-11.1-3.9-16.9-16.1-13-27.1 3-8.5 11.1-14.2 20.1-14.2 2.4 0 4.8.4 7 1.2 11 3.9 16.9 16.1 13 27.1zm-5.2 177.8c0 3.3-2.7 5.9-5.9 5.9s-5.9-2.7-5.9-5.9v-80.7h11.9l-.1 80.7zm-17.9 0c0 3.3-2.7 5.9-5.9 5.9s-5.9-2.7-5.9-5.9v-80.7h11.9l-.1 80.7zm17.9-86.8h-29.7v-55.9c0-8.2 6.7-14.9 14.9-14.9s14.9 6.7 14.9 14.9v55.9zm-51.2 2.1l-.1-.3-.1-57.6c0-7.4-3.5-13.9-8.8-17.6 6.4-3.1 11.5-8.6 14-15.6 1.5-4.3 1.9-8.8 1.2-13.2v-.2c-.1-.6-.2-1.2-.4-1.8l-.5-2-.1-.3c-.2-.6-.4-1.1-.6-1.6l-.2-.5c-.2-.4-.3-.8-.5-1.1-.7-1.4-1.4-2.6-2.3-3.8l-.1-.1-1.1-1.5-.2-.2c-1.6-1.9-3.5-3.6-5.6-5.1l-.8-.5-1.1-.6-1.2-.6-.9-.4c-.7-.3-1.5-.6-2.3-.9-2.9-1-6-1.5-9-1.5-11.6 0-21.9 7.3-25.7 18.3-.3.8-.5 1.6-.7 2.4-.1.4-.2.8-.2 1.2-.1.4-.2.8-.2 1.2l-.2 1.6-.1.7-.1 1.8v.3c0 10.2 5.9 19.8 15.3 24.4-5.3 3.7-8.9 10.2-8.9 17.7v57.6l-.1.2v.1l-9.1 36.8c-.2.9 0 1.8.6 2.6.6.7 1.4 1.2 2.4 1.2h6.1v43.5c0 6.6 5.4 12 12 12 3.6 0 6.8-1.6 9-4.1 2.2 2.5 5.4 4.1 9 4.1 6.6 0 12-5.4 12-12v-44.1h6.1c.9 0 1.8-.4 2.4-1.2.6-.7.8-1.7.6-2.6l-9.5-36.7zm-43.9 34.5l7.6-30.8h31.1l7.6 30.8h-46.3zm38 50.1c0 3.3-2.7 5.9-5.9 5.9-3.3 0-5.9-2.7-5.9-5.9v-44.1h11.9l-.1 44.1zm-17.9 0c0 3.3-2.7 5.9-5.9 5.9-3.3 0-5.9-2.7-5.9-5.9v-44.1h11.9l-.1 44.1zm-11.7-142.5c0-8.2 5.8-14.9 12.9-14.9h3.4c7.1 0 12.9 6.7 12.9 14.9l.1 55.6h-29.3v-55.6zm-6.3-45.5l.1-.3.3-1.5c.2-.7.3-1.3.6-1.9.3-.9.7-1.7 1.1-2.5l.2-.3c.4-.8.9-1.5 1.3-2.2l.2-.3c.5-.7 1.1-1.4 1.7-2l.1-.1c.4-.4.8-.8 1.3-1.2.4-.4.9-.8 1.4-1.1.5-.4.9-.7 1.4-1 .5-.3 1-.6 1.4-.9h.1c.5-.3 1-.5 1.5-.7l.1-.1 1.5-.6.2-.1c.5-.2 1-.3 1.5-.4l.2-.1c.5-.1 1-.2 1.6-.3h.2c-1.6 9-8.9 16.2-18 17.6zm37.4-10.3c.6.8 1.2 1.5 1.7 2.3l.1.1c.5.8.9 1.6 1.3 2.4v.1c.4.8.7 1.6.9 2.5l.1.4c.2.7.4 1.5.5 2.3l.1.3c-9.1-1.4-16.3-8.6-17.7-17.7l1.9.3h.1c.6.2 1.2.3 1.9.6.9.3 1.7.7 2.5 1.1l.5.3c.7.4 1.4.8 2.1 1.3l.1.1c1.3.9 2.7 2.2 3.9 3.6zm-16.4 1.7c4.1 7.9 11.9 13.6 21.1 14.7-.2 1.4-.5 2.9-1 4.2-3 8.5-11 14.2-19.9 14.2h-.4c-2.3 0-4.7-.4-6.9-1.2-7.8-2.7-13-9.6-14-17.3 9.3-1 17.1-6.7 21.1-14.6zm-30.9 5.4c-.3-1.1-.6-2.1-1-3.2l-.2-.6c-.2-.5-.4-1.1-.7-1.6l-.3-.6-.5-.9-1.1-1.8c-.2-.3-.4-.5-.5-.8-.6-.8-1.1-1.5-1.8-2.2l-.1-.2c-.7-.8-1.5-1.5-2.3-2.2l-.4-.4c-.7-.5-1.3-1.1-2-1.5l-.7-.5-2-1.2-.8-.4c-.9-.5-1.9-.9-2.9-1.2-2.9-1-6-1.5-9-1.5-2.2 0-4.3.3-6.3.8-1.4.3-2.7.8-4 1.3l-2.6 1.2c-5.9 3.2-10.5 8.4-12.8 15l-.1.3c-.3.7-.5 1.5-.7 2.2v.2c-1.5 6.1-.8 12.4 1.9 18.1 2.8 5.8 7.4 10.3 13.1 12.9-5.6 3.7-9.4 10.1-9.4 17.4v142.6c0 6.6 5.4 11.9 11.9 11.9 3.6 0 6.7-1.6 8.9-4 2.2 2.5 5.4 4 8.9 4 6.6 0 11.9-5.4 11.9-11.9v-142.6c0-7.3-3.7-13.7-9.4-17.4 6.5-3 11.8-8.6 14.3-15.7 1.7-5 1.9-10.4.7-15.5zm-6.4 13.5c-3 8.5-11.1 14.2-20.1 14.2-2.4 0-4.8-.4-7-1.2-5.4-1.9-9.7-5.7-12.1-10.9-1.8-3.8-2.5-7.9-1.9-12h42.2c.3 3.4 0 6.7-1.1 9.9zm-5.2 177.8c0 3.3-2.7 5.9-5.9 5.9-3.3 0-5.9-2.7-5.9-5.9v-80.7h11.9l-.1 80.7zm-17.9 0c0 3.3-2.7 5.9-5.9 5.9s-5.9-2.7-5.9-5.9v-80.7h11.9l-.1 80.7zm17.9-86.8h-29.8v-55.9c0-8.2 6.7-14.9 14.9-14.9s14.9 6.7 14.9 14.9v55.9zm-24.2-117.2c.3-.1.5-.2.8-.4l.6-.3c.3-.1.6-.2.8-.3l.8-.1c.3-.1.6-.2.9-.2l.6-.2.9-.2.6-.1c.4-.1.7-.1 1.1-.1l.5-.1c.6-.1 1.1-.1 1.7-.1 2.4 0 4.8.4 7 1.2.7.2 1.4.5 2 .8l.4.2 1.5.8.3.2c.5.3 1 .6 1.4 1l.3.3c.4.3.9.7 1.3 1.1l.5.4 1.1 1.1.5.5.9 1.1.5.7.7 1c.2.3.3.5.4.8l.6 1.1.1.2h-38.9l.5-1.1.1-.3.8-1.4.3-.4c.2-.3.4-.6.7-.9l.4-.5.6-.8.4-.5.6-.7.5-.5c.2-.2.4-.4.7-.6l.5-.4c.2-.2.5-.4.7-.5l.6-.4.7-.5.6-.4.8-.4c0 .2.6-.1.6-.1zm267.7 80.8l-2-61.4v-.3c0-2.1-.2-4.2-.7-6.3-.3-1.1-.6-2.1-1-3.2l-.2-.6c-.2-.5-.4-1.1-.7-1.6l-.3-.6-.5-.9c-.3-.6-.7-1.2-1.1-1.8-.2-.3-.4-.5-.5-.8-.5-.8-1.1-1.5-1.7-2.2l-.2-.2c-.7-.8-1.5-1.5-2.3-2.2l-.5-.4c-.6-.5-1.3-1-2-1.5l-.7-.5-2-1.2-.8-.4c-.9-.5-1.9-.9-2.9-1.2-2.9-1-6-1.5-9-1.5-2.2 0-4.3.3-6.3.8-1.4.3-2.7.8-4 1.3l-2.6 1.2c-5.9 3.2-10.5 8.4-12.8 15l-.1.4c-.2.7-.5 1.4-.6 2.2v.2c-.5 2-.7 4.1-.7 6.1v.2l-2 62c0 .8.3 1.6.8 2.2.6.6 1.3.9 2.2.9h5.4v119.6c0 6.6 5.4 11.9 11.9 11.9 3.6 0 6.7-1.6 8.9-4 2.2 2.5 5.4 4 8.9 4 6.6 0 11.9-5.4 11.9-11.9v-119.7h5.4c1.7 0 3-1.3 3-3-.2-.2-.2-.4-.2-.6zm-14.4 123.2c0 3.3-2.7 5.9-5.9 5.9s-5.9-2.7-5.9-5.9v-80.7h11.9l-.1 80.7zm-17.9 0c0 3.3-2.7 5.9-5.9 5.9-3.3 0-5.9-2.7-5.9-5.9v-80.7h11.9l-.1 80.7zm-.2-205.8c.4-.1.7-.1 1.1-.1l.5-.1 1.6-.1c2.4 0 4.8.4 7 1.2.7.2 1.4.5 2 .8l.4.2 1.5.8.3.2c.5.3 1 .6 1.4 1l.3.3c.4.3.9.7 1.3 1.1l.4.4 1.1 1.1.5.6c.3.3.6.7.8 1.1l.5.7.6 1 .5.9c.2.3.4.7.5 1l.1.2h-38.6l.5-1.1.1-.3.8-1.4.3-.4c.2-.3.4-.6.7-.9l.4-.5.6-.8.4-.5.6-.7.5-.5c.2-.2.4-.4.7-.6l.5-.4c.2-.2.5-.4.7-.5l.6-.4.7-.5.6-.4.8-.4.6-.3c.3-.1.5-.2.8-.4l.6-.3c.3-.1.6-.2.8-.3l.6-.2c.3-.1.6-.2.9-.2l.6-.2.9-.2.9.1zm-17.9 18.3h42.2c.1.9.2 1.8.2 2.7 0 1-.1 2-.2 3-.2 1.4-.5 2.7-1 4-3 8.5-11.1 14.2-20.1 14.2-2.4 0-4.8-.4-7-1.2-5.4-1.9-9.7-5.7-12.1-10.9-1-2-1.6-4.1-1.9-6.2-.1-1-.2-2-.2-3 0-.8 0-1.7.1-2.6zm-.7 19.1c2.7 3.6 6.2 6.4 10.3 8.3-5.6 3.7-9.4 10.1-9.4 17.4v17h-2.3c.1.1 1.4-42.7 1.4-42.7zm36.7 81.6h-29.7v-55.9c0-8.2 6.7-14.9 14.9-14.9s14.9 6.7 14.9 14.9l-.1 55.9zm-3.4-73.3c4-1.9 7.6-4.7 10.3-8.3l1.4 42.8h-2.3v-17c0-7.3-3.7-13.7-9.4-17.5zm-41.8-28.3l-.1-.7v-.3c-.1-.7-.3-1.5-.5-2.2l-.2-.6-.6-2-.1-.3c-.6-1.6-1.3-3.2-2.2-4.6v-.1c-.9-1.5-1.9-2.8-3-4.1l-.2-.2c-.6-.6-1.1-1.2-1.7-1.7-.6-.6-1.2-1.1-1.9-1.6l-.4-.3c-.6-.4-1.2-.9-1.9-1.2l-1.7-.9-.2-.1h-.1l-.2-.1-.6-.3-.3-.1c-.7-.3-1.4-.6-2-.8-.7-.2-1.4-.5-2.1-.6-2.4-.6-4.7-.9-7.1-.9-11.6 0-21.9 7.3-25.7 18.3-.3.7-.5 1.4-.6 2.2-3.3 12.7 3 26.1 14.9 31.6-5.6 3.7-9.4 10.1-9.4 17.4v142.6c0 6.6 5.4 11.9 11.9 11.9 3.6 0 6.7-1.6 8.9-4 2.2 2.5 5.4 4 8.9 4 6.6 0 11.9-5.4 11.9-11.9v-142.7c0-7.3-3.7-13.7-9.4-17.4 6.5-3 11.8-8.6 14.3-15.7 1.4-4.1 1.8-8.4 1.3-12.4l.1-.2zm-7 10.6c-3 8.5-11.1 14.2-20.1 14.2-2.4 0-4.8-.4-7-1.2-9.4-3.3-15-12.5-14.1-22 2.8.9 5.6 1.4 8.5 1.4 7 0 13.5-2.7 18.4-7.2 2.7 2.5 5.9 4.4 9.4 5.7 1.9.7 3.9 1.1 6 1.3.2 2.6-.2 5.3-1.1 7.8zm-5.2 177.8c0 3.3-2.7 5.9-5.9 5.9s-5.9-2.7-5.9-5.9v-80.7h11.9l-.1 80.7zm-17.9 0c0 3.3-2.7 5.9-5.9 5.9-3.3 0-5.9-2.7-5.9-5.9v-80.7h11.8v80.7zm17.9-86.8h-29.7v-55.9c0-8.2 6.7-14.9 14.9-14.9s14.9 6.7 14.9 14.9v55.9zm-33.8-107.7c.1-.2.2-.5.4-.7l.4-.7c.1-.2.3-.4.4-.7l.5-.7.4-.6c.2-.2.4-.4.5-.7l.5-.6.6-.6.5-.5.6-.6.6-.5c.2-.2.5-.4.7-.5l.6-.4.7-.5.6-.4c.3-.2.5-.3.8-.4l.6-.3.8-.4.6-.3.9-.3.6-.2.9-.3.7-.2c.3-.1.6-.1 1-.2l.6-.1c.4-.1.7-.1 1.1-.1l.5-.1c.5 0 1.1-.1 1.7-.1h1.8c.8.1 1.6.2 2.4.4h.1c.9.2 1.8.4 2.7.7h.1c-.4 1-.8 1.9-1.3 2.8-.5 1-1.2 1.9-1.8 2.7-.7.8-1.4 1.6-2.1 2.3-3.9 3.6-9 5.7-14.5 5.7-2.4 0-4.8-.4-7-1.2h-.1l.2-.4.3-.7c.2-.1.3-.4.4-.6zm39 2.5l.1.2c-1-.2-1.9-.4-2.8-.8-2.8-1-5.3-2.6-7.5-4.6 1.1-1.5 2-3.2 2.7-4.9l.5.4.8.6.9.8c.3.2.5.5.7.7.3.3.5.6.8.8l.7.9.6.9.6.9c.3.4.5.9.7 1.3l.6 1.2c.2.7.4 1.1.6 1.6z" />
</svg>