<svg xmlns="http://www.w3.org/2000/svg" viewBox="0 0 224 224" enable-background="new 0 0 224 224"><style type="text/css">.st0{fill:#FFFFFF;} .st1{fill:#E6D1B8;} .st2{fill:#776654;} .st3{fill:#E6E6E6;} .st4{fill:#DA291C;} .st5{fill:#404040;}</style><path class="st0" d="M81 214.4c-21.5-6.5-40.9-20.1-54.5-38.1-14.1-18.7-21.5-40.9-21.5-64.3 0-59 48-107 107-107s107 48 107 107c0 45.2-28.7 85.8-71.4 100.9l-1.3.5v-33.5l.6-.3c.8-.4 1.9-.9 2.9-1.5 5.2-2.9 22.2-13.5 22.2-29.6 0-9.4-7.6-17-17-17-3.6 0-7.3 1.2-10.2 3.4l-.6.4-.6-.4c-.8-.6-1.8-1.2-2.8-1.7l-.2-.1-.2-.2c-.9-1.4-2-2.7-3.1-3.9-1-1-2-1.9-3.1-2.7l-2.5-1.8h24.8v-43.1c0-23.3-19-42.3-42.3-42.3-23.3 0-42.3 19-42.3 42.3v43h24.8l-2.5 1.8c-1.1.8-2.2 1.7-3.1 2.7-9.2 9.5-9 23.5-8.9 25.1v60.7l-1.2-.3z"/><path class="st1" d="M114.3 119.8c-18.9 0-34.8-13.5-37.8-32.2-.2-1-.3-2-.4-3.1l-.1-1.8 1-.1c4-.3 7.8-1 11.3-2.1 14.5-4.8 21.7-16.1 25.1-24.8l.9-2.4.9 2.4c3.4 8.7 10.6 20.1 25.1 24.8 3.4 1.1 7.2 1.8 11.3 2.1l1 .1-.1 1.8c-.1 1.1-.2 2.1-.4 3.1-3 18.6-18.9 32.2-37.8 32.2z"/><path class="st2" d="M134.9 120.5l-.5-1.9c6.7-3.7 12.4-9.1 16.3-15.7l1.9-3.1v20.8h-17.7zm-58.9 0v-20.7l1.9 3.1c3.9 6.6 9.6 12.1 16.3 15.7l-.5 1.9h-17.7zm.2-43c1.9-18.4 16.6-32.8 35.1-34.3l1.4-.1-.4 1.4-.1.6v.2c-1.8 9.3-8.8 31.1-35 33.3l-1.2.1.2-1.2zm75.1 1.1c-26.2-2.1-33.2-24-35-33.3v-.2c0-.2 0-.4-.1-.6l-.4-1.4 1.4.1c18.5 1.4 33.2 15.8 35.1 34.2l.1 1.2h-1.1z"/><path class="st3" d="M112 219c-8.4 0-16.8-1-24.9-2.9l-.8-.2v-61.9c0-.1-.5-13.7 7.8-22.2 4.6-4.6 11-7 19.1-7h2c3.4 0 6.6.4 9.5 1.3 2.8.8 5.3 2.1 7.5 3.7l2 1.5-2.5.3c-1.1.1-2.3.4-3.4.7-7 2.3-11.8 8.8-11.8 16.1 0 16.2 17.1 26.8 22.4 29.7 1 .5 1.9 1 2.7 1.4l.6.3v34.8l-.7.2c-9.5 2.8-19.5 4.2-29.5 4.2z"/><path class="st4" d="M143.9 176.2c-.7-.3-1.8-.8-3-1.5l-.1-.1c-4.7-2.6-20.2-12.1-20.2-26.1 0-6.7 5-12.2 11.6-12.9l1.3-.1c1.3 0 2.7.2 4 .6 1.6.5 3.1 1.4 4.4 2.5l.9.8c.4.4.9.6 1.4.6h.1c.2 0 .4 0 .7-.1.3-.1.5-.2.7-.4.3-.3.6-.6 1-.9 2.4-2 5.2-3 8.4-3 3.5 0 6.7 1.3 9.2 3.8 2.5 2.5 3.8 5.7 3.8 9.2 0 13.9-15.4 23.5-20.1 26.1l-.1.1c-1.2.6-2.3 1.2-3 1.5l-.5.2-.5-.3z"/><path class="st5" d="M112 0c-61.9 0-112 50.1-112 112s50.1 112 112 112 112-50.1 112-112-50.1-112-112-112zm35.3 212v-31.5c.9-.4 1.9-.9 3-1.5 5.3-2.9 22.7-13.8 22.7-30.4 0-9.9-8.1-18-18-18-3.9 0-7.7 1.3-10.8 3.6-.9-.7-1.9-1.3-3-1.8-.9-1.4-2-2.7-3.2-4-1-1-2.1-2-3.3-2.8h20.3c1.4 0 2.5-1.1 2.5-2.5v-41.6c0-23.9-19.4-43.3-43.3-43.3s-43.2 19.3-43.2 43.2v41.6c0 1.4 1.1 2.5 2.5 2.5h20.3c-1.2.8-2.2 1.8-3.3 2.8-9.6 9.8-9.3 24.4-9.2 25.8v59.3c-43.5-13.1-75.3-53.6-75.3-101.4 0-59.8 49.8-108.3 110.2-105.9 54.6 2.1 99 46 101.7 100.6 2.3 48.3-27.9 90.1-70.6 105.3zm-3-70.9h.1c.3 0 .6-.1 1-.2s.8-.4 1.1-.7c.3-.3.6-.6.9-.8 2.2-1.8 4.8-2.8 7.7-2.8 6.6 0 12 5.4 12 12 0 12.4-13.1 21.6-19.6 25.2l-.1.1c-1.3.7-2.3 1.2-2.9 1.4h-.1c-.6-.2-1.6-.7-2.9-1.4h-.1c-6.5-3.6-19.7-12.7-19.7-25.2 0-6.2 4.7-11.3 10.7-11.9l1.2-.1c1.3 0 2.5.2 3.7.6 1.5.5 2.9 1.2 4.1 2.3.3.2.6.5.8.8.5.4 1.3.7 2.1.7zm-55.7-59.7c14.8-4.8 22.1-16.3 25.7-25.4 3.6 9.1 11 20.6 25.8 25.4 3.4 1.1 7.2 1.9 11.5 2.2l-.1.8c-.1 1-.2 2-.4 3-2.9 17.8-18.3 31.3-36.8 31.3s-34-13.6-36.8-31.3c-.2-1-.3-2-.4-3l-.1-.8c4.3-.3 8.1-1 11.6-2.2zm63 22v16.1h-16.7c6.9-3.7 12.7-9.3 16.7-16.1zm-.2-25.8c-25.3-2.1-32.2-22.7-34.1-32.5 0-.3 0-.6-.1-.9 18 1.4 32.4 15.5 34.2 33.4zm-40.1-33.4c-.1.3-.1.6-.1.9-1.9 9.7-8.8 30.4-34.1 32.5 1.9-17.8 16.3-32 34.2-33.4zm-34.3 59.2c4 6.8 9.8 12.4 16.7 16.1h-16.7v-16.1zm10.3 50.5c0-.1-.5-13.3 7.5-21.4 4.5-4.6 11.1-6.9 19.4-6.7h.2c3.7-.1 7.1.4 10.1 1.3 2.7.8 5.1 2 7.1 3.6-1.2.1-2.4.4-3.6.8-7.2 2.3-12.5 9.1-12.5 17.1 0 16.8 17.5 27.6 22.9 30.6 1 .6 2 1 2.8 1.4v33.4c-9.3 2.7-19.1 4.1-29.3 4.1-8.5 0-16.8-1-24.7-2.9v-61l.1-.3z"/></svg>