<svg xmlns="http://www.w3.org/2000/svg" viewBox="0 0 224 224" enable-background="new 0 0 224 224"><style type="text/css">.st0{fill:#FFFFFF;} .st1{fill:#B0DFDB;} .st2{fill:#808080;} .st3{fill:#CCCCCC;} .st4{fill:#F2F2F2;} .st5{fill:#404040;}</style><path class="st0" d="M50.4 87.3v-35.6l9.9 7.5c.4.3.8.4 1.2.4.4 0 .9-.1 1.2-.4l9.9-7.5v35.6h-22.2z"/><path class="st1" d="M127.8 91.3h56.5v23.2h-56.5zm-23.6-76h87v33.3h-87z"/><path class="st2" d="M5 219v-24.3h207.2v24.3h-207.2zm102-14.7c-1.4 0-2.5 1.1-2.5 2.5s1.1 2.5 2.5 2.5 2.5-1.1 2.5-2.5-1.1-2.5-2.5-2.5z"/><path class="st3" d="M143.7 52.7h8v22.7h-8zm-124.4 78v-51.4h27.1v8h-9.2c-1.1 0-2 .9-2 2s.9 2 2 2h48.7c1.1 0 2-.9 2-2s-.9-2-2-2h-9.2v-8h119.7v51.3h-177.1zm106.5-43.4c-1.1 0-2 .9-2 2v27.2c0 1.1.9 2 2 2h60.5c1.1 0 2-.9 2-2v-27.2c0-1.1-.9-2-2-2h-60.5zm-112.6 103.4v-56h189.2v56h-189.2zm130.8-24c-1.1 0-2 .9-2 2v12c0 1.1.9 2 2 2h48.4c1.1 0 2-.9 2-2v-12c0-1.1-.9-2-2-2h-48.4zm-60.4 0c-1.1 0-2 .9-2 2v12c0 1.1.9 2 2 2h48.4c1.1 0 2-.9 2-2v-12c0-1.1-.9-2-2-2h-48.4zm-60.4 0c-1.1 0-2 .9-2 2v12c0 1.1.9 2 2 2h48.4c1.1 0 2-.9 2-2v-12c0-1.1-.9-2-2-2h-48.4zm120.8-24c-1.1 0-2 .9-2 2v12c0 .4.1.8.3 1.1.4.6 1 .9 1.7.9h48.4c.7 0 1.3-.3 1.7-.9l.3-.6c.1-.2.1-.4.1-.5v-12c0-.2 0-.3-.1-.5-.2-.9-1-1.5-1.9-1.5h-48.5zm-60.4 0c-1.1 0-2 .9-2 2v12c0 .4.1.8.3 1.1.4.6 1 .9 1.7.9h48.4c.7 0 1.3-.3 1.7-.9.2-.3.3-.7.3-1.1v-12c0-1.1-.9-2-2-2h-48.4zm-60.4 0c-.9 0-1.7.6-1.9 1.5-.1.2-.1.4-.1.5v12c0 .2 0 .3.1.5l.3.6c.4.6 1 .9 1.7.9h48.4c.7 0 1.3-.3 1.7-.9.2-.3.3-.7.3-1.1v-12c0-1.1-.9-2-2-2h-48.5z"/><path class="st4" d="M25.2 146.7h44.4v8h-44.4zm60.4 0h44.4v8h-44.4zm60.4 0h44.4v8h-44.4zm-120.8 24h44.4v8h-44.4zm60.4 0h44.4v8h-44.4zm60.4 0h44.4v8h-44.4z"/><path class="st5" d="M186.3 86.3h-60.5c-1.7 0-3 1.3-3 3v27.2c0 1.7 1.3 3 3 3h60.5c1.7 0 3-1.3 3-3v-27.2c0-1.6-1.4-3-3-3zm-3 27.2h-54.5v-21.2h54.5v21.2zm30.9 76.2h-6.8v-57c0-1.7-1.3-3-3-3h-3.1v-52.4c0-1.7-1.3-3-3-3h-41.6v-20.6h36.5c1.7 0 3-1.3 3-3v-37.4c0-1.7-1.3-3-3-3h-91c-1.7 0-3 1.3-3 3v37.3c0 1.7 1.3 3 3 3h36.5v20.7h-61.1v-26.6c0-1.1-.6-2.2-1.7-2.7-1-.5-2.2-.4-3.2.3l-11.3 8.6-11.3-8.6c-.9-.7-2.1-.8-3.2-.3-1 .5-1.7 1.5-1.7 2.7v26.7h-27.9c-1.7 0-3 1.3-3 3v52.3h-3.1c-1.7 0-3 1.3-3 3v57h-5.2c-1.7 0-3 1.3-3 3v28.3c0 1.7 1.3 3 3 3h211.2c1.7 0 3-1.3 3-3v-28.3c0-1.7-1.4-3-3-3zm-109-142v-31.4h85v31.3h-85zm45.5 6v20.7h-6v-20.7h6zm-99.3 0l8.3 6.3c1.1.8 2.6.8 3.6 0l8.3-6.3v32.6h-20.2v-32.6zm-31.1 26.6h25.1v6h-8.2c-1.7 0-3 1.3-3 3s1.3 3 3 3h48.7c1.7 0 3-1.3 3-3s-1.3-3-3-3h-8.2v-6h117.7v49.3h-175v-49.3zm-6.1 55.4h187.2v54h-187.2v-54zm197 82.3h-205.2v-22.3h205.2v22.3z"/><circle class="st5" cx="107" cy="206.8" r="3.5"/><path class="st5" d="M71.6 141.7h-48.4c-1.4 0-2.5.9-2.9 2.2-.1.3-.1.5-.1.8v12l.1.8c.1.3.2.6.4.9.5.8 1.5 1.3 2.5 1.3h48.4c1 0 1.9-.5 2.5-1.3.3-.5.5-1.1.5-1.7v-12c0-1.7-1.4-3-3-3zm-45.4 6h42.4v6h-42.4v-6zm105.8-6h-48.4c-1.7 0-3 1.3-3 3v12c0 .6.2 1.2.5 1.7.5.8 1.5 1.3 2.5 1.3h48.4c1 0 1.9-.5 2.5-1.3.3-.5.5-1.1.5-1.7v-12c0-1.7-1.4-3-3-3zm-45.4 6h42.4v6h-42.4v-6zm105.8-6h-48.4c-1.7 0-3 1.3-3 3v12c0 .6.2 1.2.5 1.7.5.8 1.5 1.3 2.5 1.3h48.4c1 0 1.9-.5 2.5-1.3.2-.3.3-.6.4-.9.1-.3.1-.5.1-.8v-12l-.1-.8c-.4-1.3-1.5-2.2-2.9-2.2zm-45.4 6h42.4v6h-42.4v-6zm-75.4 18h-48.4c-1.7 0-3 1.3-3 3v12c0 1.7 1.3 3 3 3h48.4c1.7 0 3-1.3 3-3v-12c0-1.7-1.4-3-3-3zm-3 12h-42.4v-6h42.4v6zm63.4-12h-48.4c-1.7 0-3 1.3-3 3v12c0 1.7 1.3 3 3 3h48.4c1.7 0 3-1.3 3-3v-12c0-1.7-1.4-3-3-3zm-3 12h-42.4v-6h42.4v6zm63.4-12h-48.4c-1.7 0-3 1.3-3 3v12c0 1.7 1.3 3 3 3h48.4c1.7 0 3-1.3 3-3v-12c0-1.7-1.4-3-3-3zm-3 12h-42.4v-6h42.4v6z"/></svg>